<svg width="36" height="36" viewBox="0 0 36 36" fill="none" xmlns="http://www.w3.org/2000/svg">
<path d="M26.9607 23.3039C26.3252 22.9314 25.5442 22.9392 24.9118 23.3149L21.7094 25.2229C20.9926 25.6502 20.0973 25.6001 19.4399 25.0867C18.3035 24.1992 16.4738 22.706 14.882 21.1142C13.2902 19.5224 11.797 17.6927 10.9095 16.5563C10.3961 15.8989 10.346 15.0036 10.7733 14.2868L12.6813 11.0844C13.0585 10.452 13.0617 9.66473 12.6891 9.02925L7.99039 1.00288C7.53491 0.226537 6.63022 -0.155373 5.75527 0.0590599C4.90537 0.265667 3.8019 0.769663 2.64521 1.92792C-0.976676 5.5498 -2.90031 11.6588 10.7201 25.2792C24.3405 38.8996 30.448 36.9776 34.0714 33.3541C35.2312 32.1943 35.7337 31.0893 35.9418 30.2378C36.1531 29.3644 35.7775 28.466 35.0027 28.0121C33.0681 26.8804 28.8953 24.4371 26.9607 23.3039Z" fill="#65B915"/>
</svg>
