<svg width="29" height="36" viewBox="0 0 29 36" fill="none" xmlns="http://www.w3.org/2000/svg">
<path d="M14.5 0C6.49205 0 0 6.56837 0 14.6705C0 24.3183 9.42764 28.9368 10.6087 30.0118C11.8149 31.1094 12.8114 33.57 13.2135 34.9651C13.4085 35.6426 13.9569 35.9853 14.5 36C15.0444 35.984 15.5915 35.6412 15.7865 34.9651C16.1886 33.57 17.1851 31.1107 18.3913 30.0118C19.5724 28.9368 29 24.3183 29 14.6705C29 6.56837 22.508 0 14.5 0ZM14.5 18.6715C12.3158 18.6715 10.5455 16.8804 10.5455 14.6705C10.5455 12.4606 12.3158 10.6694 14.5 10.6694C16.6842 10.6694 18.4545 12.4606 18.4545 14.6705C18.4545 16.8804 16.6842 18.6715 14.5 18.6715Z" fill="#65B915"/>
</svg>
