<svg width="32" height="36" viewBox="0 0 32 36" fill="none" xmlns="http://www.w3.org/2000/svg">
<path d="M5.6 0C2.5125 0 0 2.50683 0 5.58735V7.18374C0 7.62337 0.359375 7.98193 0.8 7.98193H21.6C22.0438 7.98193 22.4 7.62337 22.4 7.18374V4.78916C22.4 2.75626 23.4938 0.979034 25.125 0H5.6ZM28 0.798193C25.7906 0.798193 24 2.58477 24 4.78916V7.18374C24 8.50263 22.9219 9.57832 21.6 9.57832H4.8V32.7259C4.8 33.1687 5.15938 33.5241 5.6 33.5241H17.6V35.1953C17.5969 35.4978 17.7656 35.7753 18.0375 35.9125C18.3062 36.0496 18.6313 36.0247 18.875 35.8439L21.6 33.7985L24.325 35.8439C24.5687 36.0247 24.8937 36.0496 25.1625 35.9125C25.4344 35.7753 25.6031 35.4978 25.6 35.1953V33.5241H31.2C31.6437 33.5241 32 33.1687 32 32.7259V4.78916C32 2.58477 30.2094 0.798193 28 0.798193ZM10.4 11.9729H26.4V13.5693H10.4V11.9729ZM10.4 16.7621H26.4V18.3584H10.4V16.7621ZM21.6 20.9027C22.1594 20.9027 22.5656 21.2207 22.725 21.7009C22.8062 21.7819 22.7969 21.8007 22.875 21.8007C23.0594 21.6884 23.2781 21.626 23.5 21.626C23.7563 21.626 24.0344 21.704 24.25 21.8755C24.65 22.1935 24.7094 22.6674 24.55 23.1476C24.55 23.2287 24.65 23.2193 24.65 23.2973C25.1313 23.3783 25.5219 23.793 25.6 24.2701C25.6812 24.7502 25.45 25.2273 25.05 25.4674V25.6918C25.2906 26.0099 25.3656 26.5898 25.125 26.9889C24.9156 27.3381 24.5156 27.5626 24.1 27.5626C24.0375 27.5626 23.9844 27.547 23.925 27.5377C23.925 27.6187 23.8281 27.6094 23.75 27.6873C23.75 28.1675 23.5312 28.5759 23.05 28.735C22.8906 28.816 22.8094 28.8098 22.65 28.8098C22.3312 28.8098 21.9906 28.6508 21.75 28.4107H21.45C21.2156 28.6445 20.8938 28.7848 20.55 28.7848C20.425 28.7848 20.2781 28.7786 20.15 28.735C19.75 28.5759 19.45 28.1675 19.45 27.6873C19.45 27.6063 19.3562 27.6156 19.275 27.5377C19.2125 27.547 19.1625 27.5626 19.1 27.5626C18.6844 27.5626 18.2844 27.3381 18.075 26.9889C17.8344 26.5898 17.8281 26.0909 18.15 25.6918V25.4674C17.75 25.2273 17.5187 24.7502 17.6 24.2701C17.6812 23.7899 18.0688 23.3752 18.55 23.2973C18.55 23.2162 18.65 23.2256 18.65 23.1476C18.4906 22.6674 18.55 22.1966 18.95 21.8755C19.1656 21.704 19.4437 21.626 19.7 21.626C19.9219 21.626 20.1406 21.6884 20.325 21.8007C20.4062 21.7196 20.3969 21.7009 20.475 21.7009C20.6344 21.2207 21.1187 20.9027 21.6 20.9027ZM19.2 30.032C19.3187 30.1037 19.4437 30.1536 19.575 30.2066C19.6031 30.2191 19.6219 30.2472 19.65 30.2565C19.9375 30.3532 20.2469 30.3812 20.55 30.3812C20.9062 30.3812 21.2437 30.3126 21.575 30.1817C21.9125 30.3251 22.2937 30.4062 22.65 30.4062C22.9281 30.4062 23.2375 30.3906 23.65 30.2066C23.7687 30.163 23.8906 30.1162 24 30.057V33.6239L22.075 32.1772C21.7937 31.9683 21.4062 31.9683 21.125 32.1772L19.2 33.6239V30.032Z" fill="#65B915" fill-opacity="0.7"/>
</svg>
