<svg width="42" height="29" viewBox="0 0 42 29" fill="none" xmlns="http://www.w3.org/2000/svg">
<path d="M4.21594 0C2.6704 0 1.41859 1.23595 1.41859 2.7619V22.0952C1.23325 22.0926 1.04924 22.1265 0.877246 22.1947C0.705254 22.2629 0.548713 22.3642 0.416721 22.4927C0.284729 22.6212 0.179918 22.7743 0.108379 22.9432C0.0368399 23.112 0 23.2932 0 23.4762C0 23.6592 0.0368399 23.8404 0.108379 24.0092C0.179918 24.178 0.284729 24.3312 0.416721 24.4597C0.548713 24.5881 0.705254 24.6894 0.877246 24.7577C1.04924 24.8259 1.23325 24.8597 1.41859 24.8571H5.68564C6.03166 27.1846 8.06238 29 10.51 29C12.9575 29 14.9883 27.1846 15.3343 24.8571H28.0644C28.4104 27.1846 30.4411 29 32.8887 29C35.3363 29 37.367 27.1846 37.713 24.8571H40.5814C40.7668 24.8597 40.9508 24.8259 41.1228 24.7577C41.2947 24.6894 41.4513 24.5881 41.5833 24.4597C41.7153 24.3312 41.8201 24.178 41.8916 24.0092C41.9632 23.8404 42 23.6592 42 23.4762C42 23.2932 41.9632 23.112 41.8916 22.9432C41.8201 22.7743 41.7153 22.6212 41.5833 22.4927C41.4513 22.3642 41.2947 22.2629 41.1228 22.1947C40.9508 22.1265 40.7668 22.0926 40.5814 22.0952V15.1905H32.1894V9.66667C32.1894 8.90438 32.816 8.28571 33.588 8.28571H37.5846L37.112 7.19875C36.6715 6.18375 35.6604 5.52381 34.5414 5.52381H25.196V2.7619C25.196 1.23595 23.9442 0 22.3987 0H4.21594ZM10.51 22.0952C11.6852 22.0952 12.608 23.0063 12.608 24.1667C12.608 25.327 11.6852 26.2381 10.51 26.2381C9.3347 26.2381 8.41195 25.327 8.41195 24.1667C8.41195 23.0063 9.3347 22.0952 10.51 22.0952ZM32.8887 22.0952C34.064 22.0952 34.9867 23.0063 34.9867 24.1667C34.9867 25.327 34.064 26.2381 32.8887 26.2381C31.7134 26.2381 30.7907 25.327 30.7907 24.1667C30.7907 23.0063 31.7134 22.0952 32.8887 22.0952Z" fill="#65B915" fill-opacity="0.7"/>
</svg>
