<svg width="36" height="36" viewBox="0 0 36 36" fill="none" xmlns="http://www.w3.org/2000/svg">
<path d="M18 0C8.0586 0 0 8.0586 0 18C0 27.9414 8.0586 36 18 36C27.9414 36 36 27.9414 36 18C36 8.0586 27.9414 0 18 0ZM19.8 25.9164V28.8H16.2V25.9254C13.5522 25.4286 11.8872 23.8014 11.79 21.4236H14.9076C15.057 22.6728 16.317 23.4738 18.1332 23.4738C19.809 23.4738 20.9952 22.662 20.9952 21.4974C20.9952 20.5146 20.2266 19.9494 18.3366 19.5426L16.3296 19.116C13.5216 18.5292 12.1428 17.0658 12.1428 14.7168C12.1428 12.3534 13.707 10.6686 16.2 10.1142V7.2H19.8V10.1088C22.23 10.6524 23.8536 12.3084 23.9328 14.5458H20.8998C20.7504 13.329 19.6182 12.5172 18.0594 12.5172C16.4466 12.5172 15.3792 13.2642 15.3792 14.4396C15.3792 15.39 16.1154 15.9354 17.9208 16.3188L19.7784 16.7148C22.8762 17.3664 24.21 18.702 24.21 21.0924C24.21 23.6664 22.5576 25.3926 19.8 25.9164Z" fill="#65B915" fill-opacity="0.7"/>
</svg>
