<svg width="36" height="37" viewBox="0 0 36 37" fill="none" xmlns="http://www.w3.org/2000/svg">
<path d="M32.4416 8.06489V2.36406C32.4416 1.0589 31.3899 0 30.0938 0C28.8006 0 27.7459 1.0589 27.7459 2.36406V3.65383C24.9365 1.82537 21.5951 0.751082 18 0.751082C8.05842 0.751082 0 8.86522 0 18.8755C0 28.8859 8.05842 37 18 37C27.9416 37 36 28.8859 36 18.8755C36 14.8215 34.6763 11.0846 32.4416 8.06489ZM18 35.387C8.93886 35.387 1.56522 27.9655 1.56522 18.8386C1.56522 9.71481 8.93886 2.29018 18 2.29018C22.2463 2.29018 26.2846 3.93394 29.3111 6.84592V2.36406C29.3111 1.92696 29.6627 1.57604 30.0938 1.57604C30.5279 1.57604 30.8764 1.92696 30.8764 2.36406V9.59784H23.6923C23.2582 9.59784 22.9096 9.24384 22.9096 8.80982C22.9096 8.37579 23.2582 8.0218 23.6923 8.0218H28.2687C25.5234 5.36839 21.8611 3.86622 18 3.86622C9.80095 3.86622 3.13043 10.5829 3.13043 18.8386C3.13043 27.0943 9.80095 33.811 18 33.811C26.1991 33.811 32.8696 27.0974 32.8696 18.8386C32.8696 16.4776 32.3071 14.0982 31.2432 11.9557L32.6433 11.2508C33.8173 13.6087 34.4348 16.2344 34.4348 18.8386C34.4348 27.9655 27.0611 35.387 18 35.387ZM19.5652 18.8755C19.5652 19.0171 19.5408 19.1495 19.5071 19.2788L24.8142 24.6225L23.7075 25.7369L18.4005 20.3931C18.2721 20.427 18.1406 20.4516 18 20.4516C17.1349 20.4516 16.4348 19.7467 16.4348 18.8755C16.4348 18.2938 16.7527 17.792 17.2174 17.5181V6.26722H18.7826V17.5181C19.2503 17.792 19.5652 18.2938 19.5652 18.8755Z" fill="#65B915" fill-opacity="0.7"/>
</svg>
