<svg width="38" height="38" viewBox="0 0 38 38" fill="none" xmlns="http://www.w3.org/2000/svg">
<path d="M36.9824 17.2L35.6538 16.4034C35.0881 16.0643 34.7052 15.5045 34.5327 14.8686C34.5298 14.857 34.5269 14.8453 34.5225 14.8336C34.3456 14.1919 34.3982 13.5078 34.7212 12.9246L35.474 11.5697C36.2428 10.1841 35.2577 8.47831 33.6733 8.452L32.1093 8.42569C31.4472 8.41399 30.8334 8.1202 30.3657 7.65247C30.3613 7.64809 30.3554 7.64224 30.351 7.63786C29.8819 7.17013 29.5881 6.55624 29.5778 5.89411L29.5515 4.33014C29.5238 2.74279 27.8181 1.75764 26.4325 2.52793L25.0776 3.28068C24.4958 3.6037 23.8118 3.65632 23.1687 3.47946C23.157 3.47654 23.1453 3.47361 23.1336 3.46923C22.4978 3.29529 21.938 2.9138 21.5989 2.34814L20.8023 1.0195C19.9868 -0.339834 18.018 -0.339834 17.2024 1.0195L16.4088 2.3423C16.0667 2.91234 15.5026 3.29675 14.8624 3.47215C14.8551 3.47361 14.8492 3.47654 14.8419 3.478C14.1944 3.65632 13.506 3.6037 12.9184 3.27775L11.5679 2.52793C10.1823 1.75764 8.4766 2.74279 8.45029 4.32722L8.42398 5.89118C8.41229 6.55331 8.11851 7.16721 7.65079 7.63493C7.64641 7.63932 7.64056 7.64517 7.63617 7.64955C7.16846 8.11874 6.55458 8.41253 5.89248 8.42276L4.32855 8.44907C2.74271 8.47684 1.75758 10.1826 2.52785 11.5682L3.28058 12.9232C3.6036 13.5064 3.65621 14.189 3.47936 14.8321C3.47644 14.8438 3.47351 14.8555 3.46913 14.8672C3.2952 15.503 2.91372 16.0628 2.34807 16.4019L1.01947 17.1985C-0.339824 18.0141 -0.339824 19.9844 1.01947 20.7986L2.34807 21.5966C2.91372 21.9357 3.29666 22.4955 3.46913 23.1314C3.47205 23.143 3.47497 23.1547 3.47936 23.1664C3.65621 23.8096 3.6036 24.4922 3.28058 25.0754L2.52785 26.4332C1.75905 27.8189 2.74417 29.5246 4.32855 29.5509L5.89248 29.5772C6.55458 29.5889 7.16846 29.8827 7.63617 30.3504C7.64056 30.3548 7.64641 30.3607 7.65079 30.3651C8.11997 30.8328 8.41375 31.4467 8.42398 32.1088L8.45029 33.6713C8.4766 35.2557 10.1823 36.2409 11.5679 35.4721L12.9228 34.7193C13.5045 34.3963 14.1886 34.3437 14.8317 34.5205C14.8434 34.5235 14.8551 34.5264 14.8668 34.5308C15.5026 34.7047 16.0623 35.0862 16.4014 35.6519L17.198 36.9805C18.0136 38.3398 19.9824 38.3398 20.798 36.9805L21.5945 35.6519C21.9336 35.0862 22.4934 34.7032 23.1292 34.5308C23.1409 34.5278 23.1526 34.5249 23.1643 34.5205C23.806 34.3437 24.49 34.3963 25.0732 34.7193L26.4281 35.4721C27.8137 36.2409 29.5194 35.2557 29.5457 33.6713L29.572 32.1088C29.5837 31.4467 29.8775 30.8328 30.3452 30.3651C30.3496 30.3607 30.3554 30.3548 30.3598 30.3504C30.8275 29.8813 31.4414 29.5875 32.1035 29.5772L33.6674 29.5509C35.2518 29.5246 36.2369 27.8189 35.4681 26.4332L34.7154 25.0783C34.3924 24.4951 34.3398 23.8125 34.5166 23.1694C34.5195 23.1577 34.5225 23.146 34.5268 23.1343C34.7008 22.4985 35.0823 21.9386 35.6479 21.5995L36.9765 20.8015C38.3402 19.9859 38.3402 18.0156 36.9824 17.2ZM27.3416 15.6492L17.7534 25.2376C17.4786 25.5124 17.1074 25.6659 16.7201 25.6659C16.3327 25.6659 15.96 25.5124 15.6867 25.2376L10.6398 20.1905C10.0683 19.619 10.0683 18.6952 10.6398 18.1237C11.2113 17.5522 12.135 17.5522 12.7065 18.1237L16.7201 22.1374L25.2749 13.5824C25.8464 13.0109 26.7701 13.0109 27.3416 13.5824C27.9131 14.1539 27.9131 15.0777 27.3416 15.6492Z" fill="#65B915" fill-opacity="0.7"/>
</svg>
