<svg width="33" height="39" viewBox="0 0 33 39" fill="none" xmlns="http://www.w3.org/2000/svg">
<path d="M12.8893 0.0001762C12.5088 0.00615716 12.1463 0.163698 11.8812 0.438222C11.6161 0.712747 11.4702 1.08183 11.4754 1.46446V2.90899C11.4727 3.10041 11.5079 3.29045 11.5788 3.46808C11.6498 3.64572 11.7552 3.80739 11.8888 3.94371C12.0225 4.08003 12.1817 4.18828 12.3573 4.26216C12.5329 4.33605 12.7214 4.37409 12.9117 4.37409C13.1021 4.37409 13.2905 4.33605 13.4661 4.26216C13.6417 4.18828 13.801 4.08003 13.9346 3.94371C14.0683 3.80739 14.1737 3.64572 14.2446 3.46808C14.3156 3.29045 14.3508 3.10041 14.3481 2.90899V1.46446C14.3507 1.27119 14.3148 1.07937 14.2423 0.900329C14.1699 0.721294 14.0625 0.558692 13.9265 0.422153C13.7905 0.285614 13.6286 0.177915 13.4504 0.105432C13.2723 0.0329495 13.0815 -0.00284231 12.8893 0.0001762ZM5.71602 2.89488C5.43028 2.89496 5.15106 2.98073 4.91405 3.14124C4.67704 3.30175 4.49302 3.52969 4.3855 3.79594C4.27798 4.06218 4.25185 4.35463 4.31046 4.63588C4.36907 4.91714 4.50975 5.17442 4.71451 5.37485L6.15085 6.81938C6.2832 6.95802 6.44173 7.0687 6.61715 7.14495C6.79256 7.2212 6.98134 7.26148 7.17244 7.26343C7.36353 7.26539 7.55308 7.22897 7.73001 7.15633C7.90693 7.08369 8.06766 6.97627 8.20279 6.84037C8.33792 6.70447 8.44473 6.54282 8.51696 6.36489C8.58919 6.18696 8.6254 5.99632 8.62345 5.80414C8.62151 5.61196 8.58146 5.4221 8.50564 5.24568C8.42982 5.06926 8.31977 4.90983 8.18192 4.77672L6.74558 3.33219C6.61173 3.19381 6.45166 3.08382 6.27482 3.00871C6.09799 2.9336 5.90798 2.89489 5.71602 2.89488ZM20.0654 2.89488C19.6922 2.90606 19.338 3.06291 19.0779 3.33219L17.6416 4.77672C17.5037 4.90983 17.3936 5.06926 17.3178 5.24568C17.242 5.4221 17.202 5.61196 17.2 5.80414C17.1981 5.99632 17.2343 6.18696 17.3065 6.36489C17.3787 6.54283 17.4855 6.70448 17.6207 6.84038C17.7558 6.97628 17.9165 7.08369 18.0935 7.15634C18.2704 7.22898 18.4599 7.26539 18.651 7.26344C18.8421 7.26148 19.0309 7.2212 19.2063 7.14495C19.3817 7.0687 19.5403 6.95802 19.6726 6.81938L21.109 5.37485C21.3165 5.17195 21.4583 4.91072 21.5157 4.62539C21.5731 4.34007 21.5434 4.04396 21.4306 3.77588C21.3178 3.50779 21.1271 3.28024 20.8835 3.12303C20.6399 2.96582 20.3547 2.8863 20.0654 2.89488ZM29.02 4.38456C28.3362 4.33219 27.636 4.56973 27.1124 5.09554L11.481 20.8161C11.481 20.8161 8.96057 16.0454 7.6966 14.7728C5.49182 12.5569 2.11647 12.3665 0.991814 13.4975L0.394275 14.0956C-0.131425 14.6243 -0.131425 15.4798 0.394275 16.0085L3.42966 19.0612L5.08482 26.0582C5.53008 27.9375 6.4837 29.6572 7.84247 31.0237L13.9385 37.1517C16.3889 39.6161 20.3586 39.6161 22.809 37.1517L32.2153 27.6917C33.0728 26.8293 33.2812 25.4367 32.5716 24.4472C31.6667 23.1847 29.9058 23.0809 28.8601 24.134L29.6316 23.3581C30.4905 22.4943 30.6974 21.1059 29.9879 20.1164C29.083 18.8539 27.3235 18.7488 26.2764 19.8004L27.0451 19.0274C27.904 18.1635 28.1109 16.7723 27.4014 15.7828C26.4965 14.5203 24.737 14.418 23.6899 15.4696L30.4676 8.65326C31.3265 7.78943 31.5334 6.40103 30.8239 5.41153C30.3714 4.78027 29.7039 4.43692 29.02 4.38456Z" fill="#65B915" fill-opacity="0.7"/>
</svg>
