<svg width="15" height="15" viewBox="0 0 15 15" fill="none" xmlns="http://www.w3.org/2000/svg">
<path d="M4.16667 0C1.86583 0 0 1.86583 0 4.16667V10.8333C0 13.1342 1.86583 15 4.16667 15H10.8333C13.1342 15 15 13.1342 15 10.8333V4.16667C15 1.86583 13.1342 0 10.8333 0H4.16667ZM12.5 1.66667C12.96 1.66667 13.3333 2.04 13.3333 2.5C13.3333 2.96 12.96 3.33333 12.5 3.33333C12.04 3.33333 11.6667 2.96 11.6667 2.5C11.6667 2.04 12.04 1.66667 12.5 1.66667ZM7.5 3.33333C9.80083 3.33333 11.6667 5.19917 11.6667 7.5C11.6667 9.80083 9.80083 11.6667 7.5 11.6667C5.19917 11.6667 3.33333 9.80083 3.33333 7.5C3.33333 5.19917 5.19917 3.33333 7.5 3.33333ZM7.5 5C6.83696 5 6.20107 5.26339 5.73223 5.73223C5.26339 6.20107 5 6.83696 5 7.5C5 8.16304 5.26339 8.79893 5.73223 9.26777C6.20107 9.73661 6.83696 10 7.5 10C8.16304 10 8.79893 9.73661 9.26777 9.26777C9.73661 8.79893 10 8.16304 10 7.5C10 6.83696 9.73661 6.20107 9.26777 5.73223C8.79893 5.26339 8.16304 5 7.5 5Z" fill="#B6BAC7"/>
</svg>
