<svg width="36" height="36" viewBox="0 0 36 36" fill="none" xmlns="http://www.w3.org/2000/svg">
<path d="M18 0C8.0595 0 0 8.0595 0 18C0 27.9405 8.0595 36 18 36C27.9405 36 36 27.9405 36 18C36 8.0595 27.9405 0 18 0ZM18 3C26.271 3 33 9.729 33 18V20.25C33 23.145 30.645 25.5 27.75 25.5C25.941 25.5 24.3429 24.5806 23.3994 23.1826C22.0329 24.6046 20.1225 25.5 18 25.5C13.8645 25.5 10.5 22.1355 10.5 18C10.5 13.8645 13.8645 10.5 18 10.5C22.1355 10.5 25.5 13.8645 25.5 18V20.25C25.5 21.4905 26.5095 22.5 27.75 22.5C28.9905 22.5 30 21.4905 30 20.25V18C30 11.3835 24.6165 6 18 6C11.3835 6 6 11.3835 6 18C6 24.6165 11.3835 30 18 30C18.8295 30 19.5 30.672 19.5 31.5C19.5 32.328 18.8295 33 18 33C9.729 33 3 26.271 3 18C3 9.729 9.729 3 18 3ZM18 13.5C16.8065 13.5 15.6619 13.9741 14.818 14.818C13.9741 15.6619 13.5 16.8065 13.5 18C13.5 19.1935 13.9741 20.3381 14.818 21.182C15.6619 22.0259 16.8065 22.5 18 22.5C19.1935 22.5 20.3381 22.0259 21.182 21.182C22.0259 20.3381 22.5 19.1935 22.5 18C22.5 16.8065 22.0259 15.6619 21.182 14.818C20.3381 13.9741 19.1935 13.5 18 13.5Z" fill="#65B915"/>
</svg>
