<svg width="15" height="17" viewBox="0 0 15 17" fill="none" xmlns="http://www.w3.org/2000/svg">
<path d="M7.5 7.55556C9.57107 7.55556 11.25 5.86419 11.25 3.77778C11.25 1.69137 9.57107 0 7.5 0C5.42893 0 3.75 1.69137 3.75 3.77778C3.75 5.86419 5.42893 7.55556 7.5 7.55556Z" fill="#777777"/>
<path d="M11.25 3.77778C11.25 5.86419 9.57107 7.55556 7.5 7.55556C5.42893 7.55556 3.75 5.86419 3.75 3.77778C3.75 1.69137 5.42893 0 7.5 0C9.57107 0 11.25 1.69137 11.25 3.77778Z" fill="#777777"/>
<path d="M11.25 3.77778C11.25 5.86419 9.57107 7.55556 7.5 7.55556C5.42893 7.55556 3.75 5.86419 3.75 3.77778C3.75 1.69137 5.42893 0 7.5 0C9.57107 0 11.25 1.69137 11.25 3.77778Z" fill="#777777"/>
<path d="M15 17V15.1111C15 14.1092 14.6049 13.1483 13.9016 12.4398C13.1984 11.7313 12.2446 11.3333 11.25 11.3333H3.75C2.75544 11.3333 1.80161 11.7313 1.09835 12.4398C0.395088 13.1483 0 14.1092 0 15.1111V17H15Z" fill="#777777"/>
</svg>
