<svg width="36" height="36" viewBox="0 0 36 36" fill="none" xmlns="http://www.w3.org/2000/svg">
<path d="M30 0C28.4087 0 26.8826 0.632141 25.7574 1.75736C24.6321 2.88258 24 4.4087 24 6C24.0027 6.42175 24.0498 6.84204 24.1406 7.25391L10.5176 14.0654C9.95571 13.4186 9.26181 12.8995 8.48257 12.5433C7.70333 12.187 6.85682 12.0017 6 12C4.4087 12 2.88258 12.6321 1.75736 13.7574C0.632141 14.8826 0 16.4087 0 18C0 19.5913 0.632141 21.1174 1.75736 22.2426C2.88258 23.3679 4.4087 24 6 24C6.85709 23.999 7.70403 23.8145 8.48379 23.4587C9.26355 23.1029 9.95804 22.5842 10.5205 21.9375L24.1348 28.7461C24.0459 29.1582 24.0007 29.5785 24 30C24 31.5913 24.6321 33.1174 25.7574 34.2426C26.8826 35.3679 28.4087 36 30 36C31.5913 36 33.1174 35.3679 34.2426 34.2426C35.3679 33.1174 36 31.5913 36 30C36 28.4087 35.3679 26.8826 34.2426 25.7574C33.1174 24.6321 31.5913 24 30 24C29.1429 24.001 28.296 24.1855 27.5162 24.5413C26.7364 24.8971 26.042 25.4158 25.4795 26.0625L11.8652 19.2539C11.9541 18.8418 11.9993 18.4215 12 18C11.9971 17.5792 11.95 17.1599 11.8594 16.749L25.4824 9.9375C26.0446 10.5838 26.7386 11.1023 27.5178 11.4581C28.297 11.8138 29.1434 11.9986 30 12C31.5913 12 33.1174 11.3679 34.2426 10.2426C35.3679 9.11742 36 7.5913 36 6C36 4.4087 35.3679 2.88258 34.2426 1.75736C33.1174 0.632141 31.5913 0 30 0Z" fill="#65B915"/>
</svg>
