<svg width="32" height="32" viewBox="0 0 32 32" fill="none" xmlns="http://www.w3.org/2000/svg">
<rect width="32" height="32" fill="#E5E5E5"/>
<g clip-path="url(#clip0)">
<rect width="1920" height="5874" transform="translate(-462 -1346)" fill="white"/>
<path d="M16.502 22.27C15.806 22.27 15.128 22.216 14.468 22.108C13.82 22 13.256 21.838 12.776 21.622V20.344C13.844 20.824 15.038 21.064 16.358 21.064C18.662 21.064 19.814 20.23 19.814 18.562C19.814 17.734 19.508 17.134 18.896 16.762C18.284 16.39 17.378 16.204 16.178 16.204H14.792V15.016H16.142C17.114 15.016 17.9 14.812 18.5 14.404C19.112 13.984 19.418 13.39 19.418 12.622C19.418 11.11 18.476 10.354 16.592 10.354C15.932 10.354 15.332 10.432 14.792 10.588C14.264 10.744 13.712 11.002 13.136 11.362V10.102C14.168 9.466 15.368 9.148 16.736 9.148C18.068 9.148 19.082 9.46 19.778 10.084C20.474 10.696 20.822 11.542 20.822 12.622C20.822 14.086 20.042 15.076 18.482 15.592C19.358 15.748 20.03 16.084 20.498 16.6C20.978 17.116 21.218 17.77 21.218 18.562C21.218 19.69 20.84 20.59 20.084 21.262C19.328 21.934 18.134 22.27 16.502 22.27Z" fill="#7EBA36"/>
<circle cx="16" cy="16" r="15.5" stroke="#B5DA45"/>
</g>
<defs>
<clipPath id="clip0">
<rect width="1920" height="5874" fill="white" transform="translate(-462 -1346)"/>
</clipPath>
</defs>
</svg>
