<svg width="17" height="14" viewBox="0 0 17 14" fill="none" xmlns="http://www.w3.org/2000/svg">
<path fill-rule="evenodd" clip-rule="evenodd" d="M16.9988 1.62981C16.3908 1.90701 15.7376 2.09357 15.0522 2.17837C15.7518 1.74747 16.2894 1.06534 16.5424 0.252819C15.8874 0.651657 15.1619 0.941312 14.3897 1.0974C13.7716 0.421364 12.8903 0 11.9155 0C10.0437 0 8.52561 1.55825 8.52561 3.47957C8.52561 3.75253 8.5553 4.01807 8.61339 4.27274C5.79565 4.12699 3.29753 2.74099 1.62584 0.636817C1.3341 1.15093 1.16693 1.74826 1.16693 2.38588C1.16693 3.59299 1.76538 4.65793 2.67468 5.28243C2.1196 5.26388 1.59653 5.10752 1.13956 4.84649V4.89021C1.13956 6.57699 2.3091 7.98287 3.85816 8.30287C3.57417 8.38237 3.27468 8.42477 2.96668 8.42477C2.74826 8.42477 2.53552 8.40357 2.32898 8.36249C2.76013 9.74531 4.01229 10.7513 5.49552 10.7794C4.33527 11.7122 2.87347 12.2687 1.28466 12.2687C1.01099 12.2687 0.74171 12.2528 0.476562 12.2202C1.97657 13.2077 3.75876 13.7838 5.67301 13.7838C11.908 13.7838 15.3178 8.48095 15.3178 3.88305C15.3178 3.73199 15.3145 3.58226 15.308 3.43253C15.9705 2.94226 16.5455 2.32877 16.9999 1.63047" fill="#B6BAC7"/>
</svg>
