<svg width="32" height="32" viewBox="0 0 32 32" fill="none" xmlns="http://www.w3.org/2000/svg">
<rect width="32" height="32" fill="#E5E5E5"/>
<g clip-path="url(#clip0)">
<rect width="1920" height="5874" transform="translate(-462 -1234)" fill="white"/>
<path d="M12.1969 21.064L15.1489 18.112L16.0129 17.284C16.7089 16.612 17.2429 16.072 17.6149 15.664C17.9869 15.244 18.2929 14.8 18.5329 14.332C18.7729 13.852 18.8929 13.342 18.8929 12.802C18.8929 12.022 18.6589 11.422 18.1909 11.002C17.7349 10.57 17.0509 10.354 16.1389 10.354C15.0109 10.354 13.9009 10.762 12.8089 11.578V10.21C13.7929 9.502 14.9689 9.148 16.3369 9.148C17.5729 9.148 18.5389 9.484 19.2349 10.156C19.9429 10.816 20.2969 11.698 20.2969 12.802C20.2969 13.378 20.1649 13.942 19.9009 14.494C19.6369 15.034 19.2709 15.58 18.8029 16.132C18.3469 16.672 17.7229 17.338 16.9309 18.13L14.2669 20.812H20.8009V22H12.1969V21.064Z" fill="#7EBA36"/>
<circle cx="16" cy="16" r="15.5" stroke="#B5DA45"/>
</g>
<defs>
<clipPath id="clip0">
<rect width="1920" height="5874" fill="white" transform="translate(-462 -1234)"/>
</clipPath>
</defs>
</svg>
