<svg width="390" height="218" viewBox="0 0 390 218" fill="none" xmlns="http://www.w3.org/2000/svg">
<path fill-rule="evenodd" clip-rule="evenodd" d="M83.5663 165.19C74.2425 147.823 81.1057 121.136 92.9617 106.595C99.4863 98.5903 108.851 89.8927 119.246 87.6142C127.209 85.8672 142.371 88.6182 142.567 99.4669C142.207 78.3104 143.642 52.3389 160.357 36.9643C167.575 30.3277 176.181 27.2472 186.027 27.8409C193.458 28.2885 206.299 32.112 209.385 39.6128C214.07 23.489 220.197 11.1172 236.75 4.71678C249.952 -0.384257 265.145 -0.465079 278.828 2.62166C326.674 13.4206 347.5 69.2398 317.552 108.199C342.398 99.9114 417.369 120.536 378.234 191.236C350.8 195.983 316.108 194.674 288.201 194.674C274.394 194.674 302.914 195.448 302.914 195.448C302.914 195.448 257.626 203.906 263.541 205.376C252.036 208.625 226.752 211.618 215.639 213.026C201.875 214.773 167.14 217.49 153.267 217.512C131.736 217.546 101.916 214.733 80.2979 212.619C53.5907 210.005 23.2857 203.744 12.9583 200.481C4.35829 197.764 -3.56127 196.449 2.08713 189.06C9.15229 179.815 15.0306 175.187 23.4845 169.361C40.2309 157.813 66.3477 150.53 83.5663 165.19Z" fill="white"/>
<path d="M83.5819 164.689C84.0728 165.149 83.7062 165.006 82.2894 163.844C81.9942 163.514 81.6587 163.228 81.3449 162.914C82.1278 163.458 82.8486 164.083 83.5819 164.689Z" fill="white"/>
<path d="M72.7262 159.001C72.2229 158.808 71.7009 158.609 71.2225 158.426C70.7347 158.264 70.2935 158.112 69.9579 157.981C69.2868 157.726 69.0445 157.571 69.7529 157.661C70.7533 158.022 71.3871 158.208 72.0272 158.463C72.3503 158.584 72.6765 158.709 73.0555 158.858C73.4315 159.019 73.8478 159.231 74.3636 159.489C76.0506 160.191 77.2965 160.745 77.0449 160.533C77.3245 160.71 77.9583 161.037 78.6294 161.391C79.2756 161.783 79.953 162.209 80.3413 162.52C79.8131 162.24 79.257 161.935 78.6791 161.603C78.0857 161.298 77.4674 160.978 76.8243 160.645C76.1687 160.34 75.4914 160.027 74.7985 159.706C74.4443 159.56 74.0902 159.411 73.7298 159.262C73.5495 159.184 73.3694 159.11 73.1891 159.032C73.0089 158.957 72.8194 158.895 72.6361 158.827C71.993 158.671 72.6019 158.923 72.7262 159.001Z" fill="white"/>
<path d="M88.3572 213.117L87.22 213.029C87.5276 213.048 87.9191 213.079 88.3572 213.117Z" fill="white"/>
<path d="M198.355 214.4C197.516 214.472 197.187 214.478 197.125 214.466C197.898 214.413 198.548 214.366 198.355 214.4Z" fill="white"/>
<path d="M217.043 212.234C216.608 212.293 216.297 212.336 215.949 212.386C216.347 212.318 216.782 212.252 217.043 212.234Z" fill="white"/>
<path d="M88.3572 213.117L91.287 213.331C91.489 213.418 89.7833 213.241 88.3572 213.117Z" fill="white"/>
<path d="M48.3679 157.823C48.6786 157.76 48.9613 157.704 49.2254 157.652C49.4926 157.614 49.738 157.577 49.971 157.543C49.7132 157.586 49.4615 157.63 49.213 157.673C48.9675 157.726 48.7221 157.776 48.4798 157.829L48.3679 157.823Z" fill="white"/>
<path d="M40.2587 206.3L39.367 206.129C39.1713 206.066 38.9414 205.995 38.6711 205.911L40.2587 206.3Z" fill="white"/>
<path d="M4.24632 197.102C5.01376 197.431 5.22193 197.68 5.48603 197.863C5.0759 197.63 4.51351 197.381 3.87656 197.067C3.85792 197.024 3.9698 197.033 4.24632 197.102Z" fill="white"/>
<path d="M40.5074 160.819L41.5172 160.483C41.2096 160.586 40.8803 160.698 40.5074 160.819Z" fill="white"/>
<path d="M66.5931 210.527C66.6738 210.512 66.8168 210.508 66.9597 210.515C66.9566 210.536 66.8137 210.536 66.5931 210.527Z" fill="white"/>
<path d="M82.9636 122.703C82.976 122.706 82.9822 122.709 82.9915 122.712C82.9014 122.902 82.8579 122.976 82.9636 122.703Z" fill="white"/>
<path d="M83.5321 165.025L83.2649 164.475L83.2929 164.316L83.5321 165.025Z" fill="white"/>
<path d="M251.098 207.195L250.949 207.226C250.051 207.363 250.564 207.279 251.098 207.195Z" fill="white"/>
<path d="M385.877 171.823C385.026 175.289 387.679 166.324 386.346 171.506C386.365 171.382 386.271 171.612 386.141 171.954C386.076 172.125 386.001 172.324 385.927 172.526C385.843 172.722 385.759 172.917 385.684 173.085C385.535 173.418 385.426 173.636 385.436 173.502C385.439 173.437 385.473 173.281 385.547 173.014C385.628 172.743 385.74 172.358 385.877 171.823Z" fill="white"/>
<path d="M47.4141 158.059C46.9419 158.165 46.4385 158.304 45.929 158.435C46.6156 158.252 47.0693 158.124 47.4141 158.059Z" fill="white"/>
<path d="M386.349 171.506L386.206 172.056C386.265 171.829 386.296 171.705 386.349 171.506Z" fill="white"/>
<path d="M197.724 193.654C197.886 193.657 198.193 193.704 198.516 193.751C198.489 193.763 198.318 193.748 197.724 193.654Z" fill="white"/>
<path d="M255.923 204.397L254.491 204.161C255.056 204.248 255.513 204.326 255.923 204.397Z" fill="white"/>
<path d="M193.291 188.911C194.092 188.964 194.353 188.964 195.437 189.075C195.335 189.072 195.232 189.072 195.114 189.069C194.714 189.013 194.198 188.96 193.291 188.911Z" fill="white"/>
<path d="M225.174 191.139C224.978 191.139 224.786 191.136 224.574 191.136L223.561 191.065L225.174 191.139Z" fill="white"/>
<path d="M142.091 83.6322C142.101 84.3502 142.129 84.7823 142.163 85.1243C142.07 84.6238 141.809 89.3456 142.091 83.6322Z" fill="white"/>
<path d="M48.3896 157.913C48.1783 157.916 47.9174 157.953 47.4171 158.056C47.79 157.975 48.1504 157.897 48.4828 157.826C48.5481 157.838 48.5791 157.857 48.3896 157.913Z" fill="white"/>
<path d="M194.477 190.35L199.539 190.717C198.134 190.623 196.295 190.499 194.477 190.35Z" fill="white"/>
<path d="M309.254 17.2658L308.374 16.4762C308.735 16.7808 309.049 17.0606 309.254 17.2658Z" fill="white"/>
<path d="M214.582 191.799C215.493 191.802 216.456 191.83 217.441 191.87C217.674 191.898 217.907 191.926 218.034 191.954L214.582 191.799Z" fill="white"/>
<path d="M129.698 86.6877C130.929 86.9146 131.668 87.1415 132.119 87.2845C132.566 87.4369 132.718 87.5239 132.752 87.5674C132.821 87.6638 132.417 87.6296 132.911 87.8503C134.315 88.3228 135.145 88.7144 135.667 88.9414C136.186 89.1745 136.391 89.2709 136.499 89.2864C136.708 89.333 136.499 89.0937 137.422 89.5817C138.221 90.0915 138.938 90.6355 139.557 91.2385C140.187 91.8198 140.709 92.4664 141.169 93.1068C142.064 94.4185 142.617 95.7956 142.934 97.182C142.98 97.2846 143.036 97.4742 143.058 97.5581C143.08 97.642 143.105 97.6172 143.061 97.297C143.114 97.6079 143.142 97.9498 143.189 98.3073C143.22 98.6679 143.223 99.0533 143.245 99.4605L141.896 99.4854C141.899 97.4711 141.871 94.975 141.902 92.5068C141.933 90.0418 142.017 87.6078 142.201 85.7303C142.194 85.3915 142.182 85.236 142.17 85.1552C142.25 85.8671 142.359 86.0007 142.446 85.8515C142.486 84.7573 142.592 83.7502 142.648 82.9171C142.723 82.084 142.766 81.4188 142.719 81.0116C142.636 82.3389 142.564 82.4384 142.48 83.0601L142.695 80.8033C142.679 79.7682 142.583 80.5391 142.508 81.5711C142.421 82.6 142.347 83.8901 142.269 83.8838C142.427 81.6582 142.66 79.2615 142.949 77.0047C143.238 74.748 143.54 72.6249 143.798 70.9338C143.751 70.5702 143.415 72.5347 143.207 74.033C143.002 75.5313 142.878 76.5571 143.055 74.2817C142.865 76.0318 142.698 77.785 142.58 79.5382C142.58 78.5341 142.577 78.2295 142.552 78.2823C142.527 78.3352 142.49 78.7455 142.455 79.1651C142.387 80.0013 142.316 80.881 142.297 79.0159C142.58 75.5469 142.887 73.6196 143.195 71.7016C143.276 71.2229 143.359 70.7442 143.446 70.2407C143.54 69.7402 143.639 69.2148 143.745 68.6429C143.844 68.0709 143.978 67.4523 144.118 66.7654C144.251 66.0753 144.422 65.3199 144.612 64.4682C145.084 62.9481 144.652 65.0028 145.13 63.517C145.295 62.9201 145.447 62.3699 145.587 61.8601C145.736 61.3535 145.873 60.8841 146 60.452C146.24 59.5816 146.485 58.8636 146.662 58.2356C147.035 56.9798 147.293 56.1219 147.523 55.3447C147.771 54.5707 147.961 53.8589 148.343 52.9512C148.706 52.0373 149.219 50.9058 150.117 49.3143C150.369 48.9102 150.592 48.5744 150.825 48.2263C151.062 47.8812 151.323 47.53 151.618 47.0824C151.764 46.8585 151.922 46.6099 152.102 46.3332C152.289 46.0597 152.494 45.755 152.721 45.4069C153.162 44.7044 153.746 43.8682 154.476 42.7895C154.06 43.2216 153.662 43.6723 153.252 44.1168C155.194 41.313 155.964 40.6789 156.654 39.9484C156.996 39.5784 157.384 39.2365 157.956 38.6335C158.099 38.4843 158.257 38.3164 158.431 38.1361C158.611 37.9589 158.81 37.7662 159.028 37.5517C159.469 37.1258 159.972 36.5943 160.637 36.0037C160.115 36.3705 159.152 37.2937 158.394 38.0118C157.67 38.764 157.151 39.3173 157.493 38.9319C157.872 38.4998 158.18 38.1299 158.468 37.8377C158.757 37.5455 159 37.3092 159.208 37.1103C159.624 36.7155 159.904 36.4637 160.183 36.2648C160.74 35.8607 161.181 35.5281 162.582 34.4308C162.728 34.2194 162.89 34.0236 163.048 33.8246C164.499 32.7335 166.105 31.7699 167.792 30.9026C168.634 30.4612 169.517 30.0851 170.402 29.7059C170.856 29.538 171.309 29.367 171.763 29.1992C172.22 29.0282 172.689 28.9008 173.155 28.7484C175.028 28.1858 176.973 27.7817 178.949 27.5361C180.925 27.2968 182.936 27.2408 184.936 27.3092C184.492 27.2315 183.116 27.1258 184.995 27.1227C187.304 27.1911 189.668 27.5579 192.008 28.0739C194.35 28.5992 196.69 29.2987 198.955 30.2094C201.217 31.1233 203.413 32.2393 205.377 33.6879C206.356 34.4121 207.275 35.2234 208.08 36.1373L208.378 36.4824L208.658 36.843L208.916 37.1787L208.987 37.2782C209.04 37.3497 209.062 37.3838 209.087 37.4243C209.115 37.4616 209.13 37.502 209.152 37.5362C209.155 37.5393 209.161 37.561 209.164 37.5486L209.174 37.5144L209.189 37.4522C209.198 37.4118 209.208 37.3745 209.217 37.3341L209.239 37.2284L209.248 37.1787L209.251 37.1663L209.273 37.0916L209.32 36.9331C209.736 35.7705 210.19 34.6173 210.631 33.464C210.917 32.6652 211.097 31.9347 210.743 32.8112C211.957 29.2334 210.913 32.6652 211.597 30.9772C212.392 28.9816 212.551 28.307 211.985 29.566C213.278 26.4824 215.35 22.1553 218.153 18.2262C218.519 17.7475 218.889 17.2719 219.256 16.7963C219.439 16.5569 219.622 16.3207 219.805 16.0844C219.998 15.8544 220.2 15.6368 220.396 15.4099C220.79 14.9654 221.179 14.5209 221.564 14.0857C221.965 13.6629 222.384 13.2712 222.785 12.8703C222.987 12.6713 223.186 12.4755 223.382 12.2796C223.481 12.1833 223.577 12.0838 223.677 11.9905C223.782 11.9004 223.885 11.8134 223.987 11.7263C224.397 11.372 224.801 11.0269 225.19 10.6943C225.386 10.5264 225.575 10.3617 225.765 10.1969C225.96 10.0446 226.159 9.90164 226.352 9.75554C226.737 9.46645 227.107 9.18979 227.458 8.92246L226.299 9.69026C226.855 9.27994 227.358 8.91935 227.815 8.59607C228.039 8.42821 228.269 8.29455 228.489 8.1671C228.71 8.03965 228.918 7.92153 229.117 7.80651C229.521 7.5827 229.891 7.37754 230.239 7.18481C230.416 7.09156 230.587 6.9983 230.754 6.90816C230.928 6.83044 231.102 6.75273 231.273 6.67502C231.96 6.36728 232.631 6.06575 233.411 5.68652C234.203 5.33837 235.126 4.96224 236.282 4.42136L235.377 4.77262C235.719 4.62652 236.061 4.47731 236.403 4.33121C236.744 4.18511 237.102 4.0701 237.453 3.93643C237.804 3.80898 238.158 3.67843 238.512 3.55098L239.044 3.35825L239.584 3.18729C240.305 2.96347 241.029 2.73345 241.756 2.51896C242.489 2.32623 243.225 2.13661 243.962 1.94389C246.917 1.23515 249.915 0.747117 252.845 0.436267C255.765 0.0943325 258.627 0.00729459 261.308 0.0010776C263.992 -0.0144649 266.503 0.14096 268.761 0.283951C269.184 0.398965 270.125 0.520196 271.306 0.675621C272.483 0.852805 273.91 1.03932 275.292 1.29421C275.637 1.35327 275.982 1.41233 276.32 1.4714C276.656 1.53978 276.988 1.60817 277.305 1.67345C277.945 1.81022 278.542 1.93456 279.064 2.0589C280.102 2.32934 280.838 2.55315 281 2.68371C281.823 2.88576 282.513 3.05362 283.112 3.19972C283.709 3.34893 284.206 3.49814 284.65 3.61315C285.542 3.84629 286.204 4.05766 286.949 4.28458C287.698 4.50218 288.509 4.8037 289.705 5.22957C290.299 5.45649 290.979 5.73314 291.793 6.05954C292.194 6.23672 292.629 6.42634 293.098 6.6315C293.334 6.73408 293.576 6.84288 293.831 6.95478C294.08 7.07601 294.341 7.20035 294.611 7.3278C296.901 8.45308 297.904 9.2644 300.558 10.943L300.722 10.828C301.316 11.2259 301.887 11.6548 302.462 12.0807C303.043 12.4972 303.599 12.9449 304.159 13.3863C304.827 13.7593 305.467 14.1727 306.119 14.5737C306.507 14.8721 306.883 15.1923 307.256 15.5094C307.629 15.8295 308.011 16.1342 308.378 16.4637C307.464 15.7114 306.396 14.9498 306.504 15.1022C308.294 16.5631 310.416 18.4065 312.05 19.9545C312.883 20.713 313.563 21.4248 314.085 21.9098C314.592 22.4102 314.899 22.718 314.937 22.718C317.351 25.4659 319.516 28.4252 321.449 31.5212C321.414 31.4031 321.153 30.9555 320.802 30.3804C320.454 29.8053 319.985 29.1308 319.594 28.5215C320.395 29.7432 320.83 30.4053 321.082 30.7876C321.337 31.1637 321.421 31.2477 321.498 31.3192C321.651 31.4622 321.8 31.543 323.098 33.8961C322.71 33.3024 323.201 34.2971 323.22 34.4059C323.95 35.5312 325 37.4553 326.025 39.6437C327.05 41.8321 328.01 44.2971 328.703 46.4358L328.536 45.5778C328.89 46.5322 329.188 47.5207 329.505 48.5154C329.794 49.5194 330.089 50.5328 330.338 51.571C330.844 53.6444 331.288 55.7799 331.59 57.9683C331.9 60.1536 332.115 62.3855 332.22 64.6423C332.32 66.899 332.298 69.1775 332.177 71.4592C332.22 70.6385 332.199 70.0666 332.18 69.7184C332.161 69.3672 332.13 69.2397 332.096 69.2957C332.062 69.3516 332.025 69.5941 331.987 69.9889C331.956 70.3836 331.916 70.9307 331.866 71.5991L332 72.6622C331.748 74.3812 332.124 69.8832 331.711 73.402C331.58 75.0868 331.54 75.6588 331.618 75.5717C331.689 75.4847 331.857 74.7386 331.966 73.7688L331.854 74.7946L331.568 76.84L331.394 77.8565C331.416 78.0989 331.596 77.1446 331.705 76.9177C331.608 77.3311 331.506 77.9808 331.394 78.761C331.267 79.5382 331.124 80.4458 330.95 81.3722C330.766 82.2985 330.58 83.2466 330.347 84.1014C330.235 84.5304 330.133 84.9407 330.014 85.3106C329.896 85.6806 329.778 86.0163 329.666 86.3054L329.657 86.5509C329.002 88.7362 328.349 90.5951 327.669 92.2519C327.498 92.6653 327.346 93.0726 327.172 93.4642C326.998 93.8528 326.83 94.2351 326.665 94.6113C326.345 95.3666 325.982 96.0691 325.649 96.7717C324.963 98.1643 324.245 99.4854 323.459 100.853C323.067 101.537 322.636 102.218 322.201 102.942C321.744 103.651 321.272 104.387 320.753 105.158C320.656 105.168 320.287 105.637 319.79 106.305C319.749 106.361 319.746 106.364 319.737 106.374L319.706 106.411C319.681 106.439 319.659 106.467 319.634 106.495C319.581 106.557 319.522 106.622 319.466 106.691C319.401 106.765 319.333 106.843 319.268 106.921L319.153 107.051L319.09 107.12C319.078 107.139 319.028 107.182 319.063 107.166C319.143 107.157 319.224 107.145 319.302 107.135C319.448 107.086 319.594 107.045 319.737 107.005L319.951 106.946C320.029 106.921 320.047 106.918 320.265 106.871C320.61 106.793 320.955 106.719 321.306 106.641C321.657 106.576 322.011 106.511 322.365 106.445C323.788 106.209 325.258 106.013 326.765 105.917C328.271 105.808 329.816 105.758 331.391 105.786C332.969 105.799 334.575 105.898 336.21 106.047C336.784 106.119 337.235 106.172 337.589 106.215C337.94 106.271 338.198 106.315 338.381 106.343C338.751 106.408 338.835 106.436 338.841 106.458C338.854 106.498 338.549 106.495 339.568 106.682C339.739 106.632 341.448 106.84 342.691 107.045C343.933 107.244 344.72 107.39 343.07 107.002C346.932 107.766 349.358 108.444 351.999 109.28C354.628 110.144 357.501 111.148 361.957 113.349C360.956 112.945 359.853 112.463 360.4 112.777C361.22 113.16 362.149 113.598 362.845 113.924C363.548 114.241 364.017 114.447 363.917 114.353C363.784 114.273 363.647 114.195 363.51 114.12C365.965 115.457 368.543 117.008 371.054 118.798C373.564 120.586 376.006 122.609 378.187 124.813C380.372 127.014 382.261 129.411 383.774 131.795C385.287 134.179 386.405 136.554 387.154 138.671L386.974 138.205C388.089 141.099 388.869 144.114 389.313 147.17C389.618 149.29 389.559 148.656 389.49 147.882C389.459 147.493 389.425 147.07 389.413 146.943C389.407 146.812 389.481 146.971 389.605 147.754C390.199 152.737 390.04 156.703 389.671 160.406C389.273 164.105 388.599 167.565 387.375 171.484C387.291 171.873 387.194 172.299 387.083 172.756C386.964 173.21 386.815 173.691 386.663 174.201C386.505 174.711 386.34 175.249 386.166 175.811C385.967 176.365 385.759 176.943 385.545 177.54C384.69 179.936 383.519 182.572 382.261 185.236C381.931 185.895 381.599 186.557 381.266 187.22L380.769 188.214C380.601 188.544 380.418 188.867 380.247 189.19C379.896 189.84 379.551 190.484 379.206 191.121C379.064 191.388 378.921 191.655 378.778 191.92C378.768 191.966 378.722 191.966 378.681 191.972L378.56 191.991L378.321 192.028L377.87 192.1C377.519 192.156 377.168 192.209 376.82 192.265C375.435 192.488 374.099 192.703 372.843 192.905C371.585 193.082 370.414 193.256 369.357 193.43L369.833 193.262C368.739 193.346 368.084 193.455 367.496 193.552C366.909 193.645 366.397 193.744 365.592 193.841C365.819 193.735 367.953 193.499 366.586 193.583C348.05 195.482 328.203 195.793 309.164 195.774C302.183 195.756 305.203 195.187 296.416 195.382L298.911 195.597C295.397 195.513 291.843 195.466 288.276 195.448C286.483 195.417 284.681 195.395 282.892 195.327L280.204 195.246L277.52 195.143C270.368 194.87 263.256 194.537 256.38 194.08C257.21 194.17 257.232 194.229 258.583 194.298C257.126 194.295 254.438 194.158 252.108 194.005C250.943 193.928 249.868 193.844 249.082 193.775C248.296 193.704 247.796 193.648 247.783 193.617C245.655 193.514 247.286 193.698 245.956 193.685C243.042 193.617 238.674 193.088 237.105 193.144C236.844 193.154 237.91 193.238 238.453 193.278C236.564 193.104 229.602 192.774 231.428 192.715C226.262 192.492 221.589 192.035 217.441 191.873C214.782 191.509 208.611 191.382 207.775 191.049C207.962 191.198 205.703 191.096 202.988 190.906C200.272 190.714 197.106 190.421 195.478 190.235C196.563 190.406 192.645 190.089 193.906 190.306C192.051 190.148 190.271 189.986 189.034 189.849C187.798 189.7 187.111 189.585 187.441 189.548C186.26 189.489 185.082 189.411 183.917 189.302C182.749 189.175 181.6 189.035 180.478 188.889L180.972 187.512C181.183 187.624 181.395 187.732 181.606 187.841C181.811 187.953 182.066 188.037 182.292 188.137C182.525 188.23 182.749 188.332 182.988 188.416C183.224 188.5 183.461 188.581 183.694 188.665C183.927 188.746 184.157 188.827 184.386 188.908C184.619 188.979 184.849 189.05 185.076 189.122C185.533 189.259 185.971 189.405 186.409 189.523C188.149 190.014 189.702 190.368 190.955 190.533C196.314 191.898 201.518 193.045 206.589 194.12C211.662 195.196 216.608 196.188 221.493 197.139C221.343 196.974 218.637 196.458 216.034 195.948C213.43 195.438 210.926 194.938 211.174 194.842C220.408 196.756 225.737 197.975 234.977 199.591C237.36 199.986 233.641 199.228 232.833 199.035C242.091 200.841 250.794 202.224 259.058 203.894C259.034 203.862 258.145 203.67 257.3 203.496C258.213 203.664 259.267 203.859 260.068 204.009C261.277 204.239 261.991 204.416 261.737 204.425C261.348 204.338 260.96 204.251 260.54 204.167L259.313 203.918C258.655 203.841 258.723 203.9 259.204 204.037C259.295 204.065 259.546 204.124 259.776 204.176C260.009 204.229 260.267 204.291 260.55 204.357C261.065 204.481 261.659 204.621 262.283 204.77C262.843 204.91 263.43 205.056 263.995 205.196C264.132 205.23 264.266 205.268 264.399 205.302L264.496 205.327L264.57 205.345C264.583 205.348 264.586 205.348 264.57 205.351C264.489 205.37 264.409 205.389 264.328 205.41C264.014 205.485 263.713 205.557 263.43 205.622C262.318 205.883 261.569 206.051 261.445 206.057C261.917 205.982 262.162 205.948 262.2 205.97C262.237 205.989 262.066 206.057 261.743 206.157C261.413 206.25 260.957 206.38 260.394 206.52C259.888 206.645 259.329 206.784 258.785 206.918C256.961 207.335 255.333 207.717 257.561 207.484C257.02 207.583 256.414 207.689 255.973 207.751C255.529 207.81 255.246 207.826 255.355 207.764C253.774 208.087 253.27 208.233 254.926 208.012C251.993 208.544 251.03 208.634 250.148 208.755C249.265 208.867 248.458 208.967 245.817 209.399C245.842 209.458 246.91 209.309 247.473 209.287C244.757 209.613 242.042 209.918 237.54 210.611C237.829 210.605 237.294 210.729 238.633 210.54C230.907 211.627 225.423 212.016 216.953 213.194C219.485 213.138 214.079 213.642 213.632 213.912C212.11 214.071 210.59 214.211 209.068 214.347L210.892 214.043C206.881 214.478 203.317 214.655 199.856 215.038L202.854 214.857C200.344 215.075 197.833 215.286 195.323 215.482L199.567 215.028C195.512 215.274 199.98 214.711 194.649 215.233C195.739 215.168 190.631 215.572 188.544 215.864C186.571 215.942 184.517 216.029 181.541 216.293C180.792 216.421 182.181 216.495 181.69 216.579C179.707 216.545 172.269 217.167 169.765 217.098C170.601 217.098 170.657 217.213 170.374 217.254L168.731 217.192C166.86 217.347 166.581 217.384 166.894 217.462C161.286 217.761 168.65 217.098 162.004 217.531C162.526 217.521 162.293 217.558 163.387 217.531C160.034 217.701 156.797 217.813 153.622 217.804C152.037 217.785 150.468 217.77 148.908 217.751C147.352 217.723 145.805 217.695 144.264 217.67C142.462 217.86 149.66 217.848 147.563 217.991C138.687 217.792 129.22 217.015 120.66 216.467L122.242 216.551C121.07 216.153 115.848 216.256 111.532 215.759C112.595 215.871 112.918 216.045 112.635 215.989C106.772 215.572 100.667 214.922 91.8 213.987L92.9061 214.173C89.4325 213.922 83.8183 213.35 80.09 213.02C78.987 212.821 76.865 212.61 78.1668 212.628C72.4065 212.265 66.9414 211.503 61.6659 210.658C56.3872 209.812 51.2887 208.92 46.2213 208.214C47.4299 208.426 49.0797 208.783 48.1197 208.618C45.2582 208.102 42.3998 207.552 39.5476 206.99C40.2622 206.987 40.6848 207.123 42.4961 207.344C41.4336 207.074 39.0226 206.548 36.9068 206.135C40.7438 206.968 36.8353 206.355 35.1638 206.097C35.4527 206.113 34.8717 205.948 35.0457 205.939C30.5282 205.264 34.3218 205.532 28.2105 204.4L28.5367 204.543C26.2469 204.005 24.1994 203.452 21.7294 202.877C20.6792 202.79 24.1528 203.533 24.2646 203.688C20.8191 202.877 17.5599 201.774 14.4778 201.049C15.879 201.509 17.9638 202.063 19.4178 202.467C17.7028 202.14 16.7521 201.91 15.9132 201.699C15.0743 201.497 14.3598 201.27 13.117 200.916L13.3811 200.99L7.62084 199.318L9.11837 199.728C8.08997 199.305 7.03672 198.923 5.96483 198.51C4.89294 198.09 3.78999 197.664 2.71188 197.052C2.17749 196.744 1.64311 196.387 1.17397 195.926C0.704821 195.47 0.307106 194.885 0.136225 194.201C-0.0408696 193.52 0.0275193 192.784 0.251218 192.103C0.474917 191.419 0.835315 190.782 1.25475 190.166C0.422093 191.36 0.198391 192.156 0.0865418 192.513C-0.00666606 192.883 -0.00666909 192.834 0.00575863 192.603C0.0399348 192.38 0.120697 191.982 0.220119 191.683C0.300899 191.376 0.38789 191.164 0.294682 191.248C0.583626 190.508 1.09319 189.654 1.49088 189.082C1.87925 188.497 2.11848 188.18 1.88236 188.432C2.3484 187.897 2.75229 187.387 3.15308 186.887C3.55387 186.386 3.94535 185.895 4.35857 185.376C5.20365 184.35 6.14814 183.216 7.59597 181.848C7.655 181.671 9.71181 179.675 9.14014 180.042C11.837 177.499 8.59019 180.704 8.88535 180.549C10.9483 178.6 13.3904 176.34 16.227 174.074C17.6407 172.936 19.16 171.808 20.7414 170.682C22.3259 169.563 23.9757 168.432 25.7373 167.412C28.7417 165.597 30.6338 164.717 32.4607 163.875C34.2969 163.045 36.0927 162.289 39.1189 161.167C39.6191 160.943 39.7651 160.878 39.6968 160.872C39.6284 160.869 39.3457 160.947 39.0039 161.062C38.3204 161.285 37.3821 161.624 37.3821 161.624C39.0101 160.925 40.4549 160.362 41.9027 159.887C42.6266 159.65 43.3443 159.414 44.09 159.215C44.4628 159.113 44.8388 159.007 45.224 158.901C45.6124 158.808 46.0069 158.715 46.4108 158.615C45.7553 158.736 46.386 158.519 47.374 158.205C48.6913 157.922 49.1387 157.86 49.6917 157.804C50.2479 157.751 50.891 157.617 52.6309 157.325C52.0282 157.35 51.2328 157.353 49.9621 157.54C53.0877 156.996 56.2039 156.747 59.4693 156.759C59.9136 156.713 59.4227 156.657 58.677 156.657C58.3042 156.654 57.8661 156.651 57.4498 156.648C57.0334 156.657 56.6389 156.669 56.3499 156.675C57.2665 156.601 58.3228 156.595 59.4071 156.573C59.9508 156.585 60.5008 156.598 61.0445 156.61C61.5882 156.616 62.1226 156.675 62.6414 156.707C62.8993 156.725 63.1541 156.744 63.3996 156.763C63.645 156.794 63.8842 156.822 64.1141 156.853C64.5739 156.915 65.0027 156.971 65.3848 157.021C66.1429 157.164 66.7115 157.285 66.9911 157.369C66.202 157.272 65.419 157.148 64.6268 157.104C65.9783 157.251 65.3507 157.039 64.3596 156.906C61.2123 156.483 59.8079 156.763 59.6184 156.797L61.3707 156.843L61.9548 156.884C61.3583 156.921 60.479 156.977 59.4227 156.971C58.8945 156.993 58.3228 157.011 57.717 157.024C57.1111 157.036 56.4804 157.089 55.8249 157.12C53.215 157.279 50.3225 157.67 48.0513 158.208C48.7069 158.146 49.3562 158.077 50.0149 158.049C49.2195 158.152 48.4334 158.314 47.6412 158.45C46.852 158.597 46.0691 158.78 45.2799 158.945C44.7952 159.119 44.4069 159.29 44.41 159.336C44.4131 159.361 44.5156 159.355 44.7549 159.305C44.9941 159.256 45.37 159.156 45.9261 159.029C45.1277 159.259 44.5591 159.461 44.0993 159.588C43.6394 159.719 43.2977 159.818 42.9715 159.911C42.3221 160.11 41.7132 160.26 40.3958 160.819C40.11 160.943 40.2249 160.915 40.5077 160.825C39.4793 161.158 38.4664 161.54 37.4505 161.916C38.0501 161.73 37.0155 162.277 38.8548 161.512C36.1549 162.644 34.0018 163.598 32.2868 164.416C31.4324 164.829 30.6805 165.202 30.0311 165.553C29.388 165.914 28.8349 166.231 28.3813 166.551C28.5242 166.47 28.6703 166.396 28.8163 166.318C27.9308 166.815 27.2659 167.207 26.7564 167.499C26.2531 167.804 25.9051 168.009 25.669 168.146C25.1905 168.419 25.147 168.413 25.1563 168.373C25.175 168.295 25.3831 168.034 22.7951 169.669C21.7543 170.574 20.7197 171.484 19.7037 172.411L18.9331 172.743C18.6069 172.989 18.1129 173.362 17.737 173.66C17.361 173.962 17.1063 174.189 17.2461 174.127C14.714 175.92 17.6158 173.735 16.1276 174.739C14.5804 176.048 12.4397 177.832 10.7091 179.483C9.83607 180.303 9.07175 181.09 8.48765 181.714C7.91598 182.352 7.52453 182.824 7.422 183.039C6.32525 184.009 9.98519 180.142 6.97458 183.228C6.82545 183.514 6.53961 183.884 6.16057 184.326C5.78773 184.773 5.32792 185.299 4.80906 185.877C4.30884 186.467 3.74028 187.105 3.18725 187.801C2.63732 188.497 2.04702 189.218 1.57166 190.002C1.74876 189.787 2.03147 189.467 2.29245 189.134C2.56586 188.805 2.83926 188.475 3.01635 188.264C3.37365 187.838 3.3488 187.882 2.28312 189.38C1.90719 189.781 1.45357 190.347 1.07452 191.062C0.695479 191.767 0.397213 192.647 0.453138 193.533C0.493528 193.971 0.630248 194.397 0.857054 194.773C1.07454 195.156 1.39764 195.476 1.73008 195.762C2.4105 196.331 3.18724 196.735 3.87387 197.074C3.88008 197.133 4.25294 197.353 4.90539 197.639C5.56095 197.922 6.49923 198.267 7.60218 198.622C9.82364 199.305 12.6541 200.179 15.1489 200.947C14.9998 200.86 17.3642 201.509 20.3841 202.218C23.404 202.924 27.0702 203.729 29.4564 204.186L29.3352 204.124C30.202 204.54 35.1265 205.538 38.6808 206.25C38.5814 206.094 37.9258 205.917 35.9995 205.482L39.3643 206.135C40.1659 206.365 41.2098 206.598 43.3754 207.018L42.5614 206.701C47.054 207.543 51.5839 208.51 57.4001 209.296C57.7107 209.501 52.7117 209.01 58.8386 210.058C59.0933 210.014 59.3326 209.905 57.7449 209.626C58.2576 209.713 59.606 209.989 60.6685 210.101C59.8514 209.94 59.0374 209.759 58.2203 209.588C60.8736 209.933 59.5905 209.921 61.7249 210.216C61.6907 210.092 63.3032 210.356 63.0143 210.219C62.4705 210.129 61.1532 210.002 60.3361 209.837C62.7346 210.157 65.621 210.508 66.5872 210.53C66.3697 210.571 66.5655 210.689 68.3147 210.934C70.5796 211.242 70.9804 211.242 71.1389 211.217C71.2973 211.192 71.2197 211.127 72.5401 211.254C73.0901 211.363 74.0905 211.481 74.9573 211.596C75.8242 211.708 76.5636 211.802 76.5916 211.898C77.912 212.035 78.1792 211.982 78.7012 211.988C81.0127 212.321 89.6686 213.082 87.006 213.02L86.3846 212.973L86.7699 213.017C94.4626 213.937 102.823 214.422 110.457 215.118L110.463 215.059C115.018 215.501 120.645 215.889 123.898 216.225C125.249 216.315 127.095 216.328 126.529 216.219C130.031 216.471 130.416 216.573 135.48 216.732C131.969 216.446 136.704 216.704 131.876 216.471C136.422 216.654 137.475 216.613 142.334 216.949C140.678 216.744 145.764 216.878 147.914 216.946L144.748 216.99C147.162 217.061 149.291 217.102 151.472 217.089L150.3 216.881C154.951 216.831 159.13 216.772 163.057 216.688C166.978 216.586 170.623 216.449 174.149 216.017C176.619 216.004 169.1 216.43 171.316 216.455C175.591 216.169 180.031 215.578 181.376 215.476C184.309 215.212 185.679 215.18 187.083 215.149C188.488 215.121 189.92 215.09 192.974 214.804C192.2 214.935 191.464 215.199 196.056 214.876C200.325 214.481 201.285 214.108 198.588 214.298C197.551 214.388 197.06 214.447 197.116 214.469C195.739 214.559 193.912 214.686 195.602 214.462L196.149 214.487C198.268 214.242 204.165 213.701 202.758 213.713C206.008 213.471 204.165 213.698 201.76 213.962C204.498 213.654 206.635 213.446 208.795 213.225C210.954 213.005 213.129 212.775 215.937 212.389C215.052 212.538 214.241 212.719 215.117 212.613C223.36 211.491 218.771 212.296 224.37 211.618C227.526 211.102 223.201 211.512 228.828 210.872C232.246 210.344 229.527 210.592 228.154 210.71C233.296 210.179 237.692 209.33 240.616 208.87L237.922 209.203C239.534 209.013 240.839 208.808 242.175 208.612L240.681 208.979C242.256 208.721 243.577 208.519 243.542 208.463C245.17 208.304 242.334 208.892 245.587 208.516C246.624 208.317 248.225 208.068 249.651 207.835C251.074 207.59 252.326 207.36 252.667 207.201C246.084 208.42 253.379 206.899 247.783 207.816C248.865 207.667 250.179 207.437 251.735 207.136C251.987 207.07 251.524 207.133 251.086 207.198C252.658 206.884 253.618 206.685 254.286 206.573C254.954 206.458 255.327 206.421 255.709 206.383C256.088 206.343 256.477 206.306 257.176 206.194C257.524 206.138 257.952 206.063 258.493 205.961C258.801 205.892 259.176 205.811 259.639 205.712C259.409 205.709 259.49 205.637 259.543 205.591C259.608 205.535 259.67 205.501 259.816 205.476C259.702 205.507 259.667 205.529 259.674 205.544C259.683 205.56 259.745 205.572 259.866 205.569C259.99 205.566 260.18 205.55 260.444 205.51C260.578 205.488 260.727 205.463 260.892 205.438L260.923 205.432C260.929 205.429 260.919 205.429 260.916 205.426L260.895 205.417L260.845 205.395C260.808 205.379 260.767 205.364 260.717 205.348C260.171 205.258 259.832 205.202 259.552 205.146C259.13 205.056 258.807 204.988 258.521 204.929C257.639 204.742 257.008 204.59 255.908 204.397L258.421 204.817C257.598 204.556 255.501 204.186 252.565 203.623C252.319 203.664 255.2 204.155 254.146 204.002C250.965 203.238 246.805 202.883 242.3 201.948C240.19 201.643 242.048 202.106 240.212 201.826C235.172 200.776 234.681 200.978 229.384 199.893C230.944 200.03 231.18 200.114 227.486 199.29L236.216 200.987L230.627 199.756C233.286 200.241 236.21 200.866 237.801 201.127C235.135 200.527 235.412 200.611 236.673 200.72C233.041 200.281 229.546 199.296 225.33 198.665L225.392 199.038C219.075 198.018 214.256 196.778 206.088 195.227L208.742 195.696C207.673 195.342 203.696 194.664 201.086 194.055C201.316 194.226 199.651 193.918 198.501 193.751C198.579 193.723 197.097 193.399 195.506 193.036C193.919 192.659 192.225 192.237 191.887 192.028C190.675 191.798 189.463 191.553 188.251 191.298C187.273 191.059 186.425 190.819 185.667 190.608C184.912 190.372 184.247 190.176 183.638 189.952C183.029 189.722 182.473 189.535 181.941 189.284C181.674 189.159 181.41 189.057 181.149 188.92C180.888 188.774 180.627 188.625 180.363 188.475L178.527 187.437L180.618 187.764C182.128 188 183.799 188.292 186.375 188.503C185.424 188.348 185.676 188.317 185.629 188.264C185.607 188.236 185.508 188.205 185.151 188.146C184.79 188.096 184.172 188.006 183.11 187.854C184.172 187.987 185.188 188.074 185.94 188.149C186.692 188.227 187.183 188.289 187.208 188.332C188.45 188.395 193.117 189.01 195.105 189.066C195.994 189.187 196.267 189.333 198.681 189.507C198.939 189.501 198.685 189.448 198.685 189.448C198.681 189.507 202.435 189.815 200.325 189.787C206.958 189.918 218.786 191.102 224.565 191.133C229.257 191.463 234.886 191.842 239.14 192.091C238.882 192.041 239.143 192.032 238.338 191.997C244.21 192.221 241.93 192.551 248.604 192.79C252.04 192.784 245.08 192.495 247.212 192.538C247.684 192.367 249.694 192.492 252.152 192.659C254.609 192.821 257.508 193.023 259.761 193.026L258.67 192.945C262.125 192.986 267.046 193.514 272.654 193.729C272.654 193.729 272.396 193.682 272.629 193.67C276.463 194.021 283.731 194.441 289.143 194.493C287.443 194.338 286.691 194.382 287.704 194.245C290.118 194.285 287.002 194.497 291.837 194.556C293.396 194.472 296.916 194.425 297.348 194.26L292.8 194.226C295.142 194.021 298.703 194.267 301.12 194.248L300.809 194.152C307.803 194.232 307.902 194.478 315.412 194.497L314.644 194.565C318.739 194.814 318.062 194.441 322.169 194.615L323.415 194.372C326.115 194.422 332.901 194.546 337.763 194.456C335.004 194.354 329.315 194.357 325.805 194.263C328.48 194.254 334.92 194.179 336.328 194.251C335.234 194.251 333.883 194.229 332.82 194.279C334.47 194.347 336.374 194.366 338.537 194.366C340.696 194.35 343.113 194.295 345.788 194.186C345.549 194.083 346.301 193.981 347.621 193.881C348.942 193.797 350.831 193.673 352.872 193.542C353.891 193.474 354.951 193.402 355.991 193.331C357.035 193.259 358.061 193.154 359.018 193.067C359.978 192.977 360.869 192.883 361.64 192.796C362.414 192.709 363.063 192.594 363.541 192.504C364.716 192.398 365.887 192.293 367.061 192.187C368.236 192.072 369.404 191.907 370.579 191.764C371.753 191.612 372.937 191.475 374.117 191.267C375.289 191.074 376.469 190.881 377.659 190.689C377.715 190.676 377.777 190.676 377.818 190.651L377.895 190.499C378.038 190.229 378.181 189.955 378.324 189.685C378.61 189.141 378.896 188.59 379.185 188.04C379.753 186.934 380.285 185.79 380.853 184.643C381.384 183.48 381.919 182.299 382.45 181.09C382.702 180.48 382.957 179.865 383.214 179.246C383.345 178.935 383.472 178.625 383.603 178.314C383.721 177.997 383.842 177.68 383.963 177.359C382.922 181.111 385.119 174.363 385.197 175.112C385.613 173.9 385.899 173.06 386.082 172.498C386.247 171.929 386.321 171.64 386.34 171.537L386.828 169.657L387.241 167.76C387.306 167.443 387.384 167.129 387.443 166.812L387.608 165.858C387.713 165.221 387.841 164.59 387.928 163.949C388.011 163.035 387.912 163.635 387.75 164.422C387.573 165.208 387.359 166.187 387.34 166.066C387.474 165.382 387.58 164.832 387.667 164.388C387.747 163.943 387.782 163.598 387.819 163.331C387.884 162.796 387.9 162.563 387.903 162.389C387.903 162.041 387.9 161.926 388.043 160.101C388.067 160.477 388.167 160.008 388.3 159.044C388.378 158.077 388.515 156.623 388.484 155.037C388.54 156.52 388.496 158.009 388.422 159.498C388.499 159.016 388.521 158.562 388.558 158.143C388.589 157.72 388.62 157.331 388.648 156.965C388.701 156.234 388.683 155.603 388.692 155.044C388.692 154.764 388.689 154.503 388.689 154.251C388.679 154.002 388.661 153.766 388.645 153.539C388.611 153.085 388.58 152.666 388.546 152.246C388.338 150.574 388.251 148.892 387.533 145.071C387.667 145.886 387.775 146.703 387.884 147.518C387.81 147.024 387.695 146.43 387.577 145.758C387.545 145.591 387.518 145.417 387.48 145.242C387.44 145.068 387.396 144.888 387.353 144.705C387.266 144.338 387.173 143.956 387.079 143.561C386.996 143.163 386.856 142.765 386.741 142.352C386.616 141.941 386.502 141.515 386.362 141.096C386.054 140.26 385.787 139.383 385.417 138.544C384.755 136.834 383.907 135.205 383.149 133.772C382.736 133.076 382.379 132.404 382.018 131.826C381.655 131.251 381.35 130.732 381.092 130.306C380.636 129.771 380.002 129.094 381.04 130.521C379.638 128.587 378.007 126.654 376.199 124.835C374.394 123.017 372.415 121.313 370.373 119.799C366.291 116.769 361.991 114.493 358.517 113.116L359.145 113.486C358.322 113.116 357.626 112.762 356.855 112.435C356.091 112.09 355.252 111.77 354.171 111.422C354.283 111.503 354.82 111.758 354.047 111.478C353.823 111.394 353.434 111.248 352.937 111.065C352.689 110.974 352.415 110.872 352.12 110.766C351.825 110.667 351.511 110.561 351.185 110.452C350.536 110.228 349.837 110.017 349.153 109.824C348.473 109.619 347.805 109.461 347.221 109.324C347.87 109.523 348.522 109.719 349.162 109.942C344.617 108.749 341.072 108.087 337.692 107.592C334.308 107.129 331.074 106.837 327.131 106.996C327.15 107.12 325.73 107.254 323.853 107.549C323.384 107.63 322.884 107.695 322.378 107.804C322.123 107.853 321.865 107.903 321.604 107.953C321.343 108.006 321.085 108.071 320.824 108.127L320.436 108.217C320.402 108.226 320.225 108.261 320.119 108.292C320.001 108.323 319.873 108.363 319.752 108.397C319.255 108.544 318.761 108.687 318.276 108.83C317.292 109.109 316.347 109.426 315.434 109.706C315.477 109.632 315.564 109.52 315.632 109.426C315.704 109.33 315.775 109.234 315.844 109.137C315.984 108.948 316.12 108.758 316.257 108.575C316.527 108.205 316.785 107.853 317.031 107.521L316.822 107.742C317.214 107.213 317.602 106.691 317.984 106.172L318.273 105.78L318.522 105.423C318.615 105.286 318.711 105.152 318.805 105.015C319.181 104.475 319.553 103.949 319.895 103.411C320.237 102.877 320.597 102.361 320.914 101.832C321.237 101.304 321.554 100.785 321.868 100.272C323.086 98.1954 324.152 96.1624 325.115 94.1077C326.084 92.0561 326.914 89.9672 327.672 87.7819C328.424 85.5966 329.089 83.3088 329.623 80.8344C329.853 79.2771 330.198 77.1881 330.431 74.748C330.664 72.3109 330.807 69.5319 330.745 66.6317C330.682 63.7346 330.415 60.7193 329.952 57.8346C329.492 54.9468 328.84 52.1865 328.101 49.7774C328.337 50.5141 328.371 50.4426 328.287 49.9701C328.243 49.7339 328.172 49.3951 328.082 49.0096C327.989 48.6211 327.858 48.189 327.731 47.7538C327.638 47.474 327.535 47.1663 327.429 46.843C327.321 46.5197 327.206 46.184 327.088 45.8421C326.867 45.1551 326.612 44.465 326.389 43.8557C326.171 43.2434 325.954 42.7242 325.795 42.3823C325.637 42.0404 325.537 41.8787 325.519 41.9937L325.854 42.7771C324.975 41.1918 322.996 36.7404 320.958 33.5355L320.899 32.8299C319.482 30.7752 317.798 28.4469 315.897 26.1342C313.998 23.8184 311.873 21.5336 309.708 19.4913C305.386 15.3881 300.865 12.3605 298.417 11.1823C296.407 9.88299 293.75 8.50903 291.613 7.48944L291.659 7.69771C288.611 6.36417 286.25 5.54974 283.684 4.76329C281.114 3.99239 278.321 3.27122 274.273 2.54383L275.898 2.95726C274.758 2.76453 273.835 2.54694 273.018 2.3884C272.201 2.22365 271.495 2.05268 270.799 1.89415C270.1 1.75116 269.411 1.60817 268.628 1.4714C267.845 1.33773 266.966 1.24758 265.894 1.15433C265.459 1.20096 265.021 1.27867 264.586 1.33773C260.544 1.12635 256.464 1.27556 252.438 1.74184C248.411 2.21744 244.447 3.02564 240.597 4.10118C240.721 4.1074 240.97 4.09186 242.231 3.73438C241.771 3.85561 241.218 4.04523 240.588 4.24107C240.274 4.34054 239.941 4.44623 239.6 4.55502C239.258 4.67004 238.91 4.80681 238.55 4.93737C237.096 5.42851 235.586 6.13103 234.197 6.71232C233.526 7.04804 232.889 7.36821 232.323 7.65109C232.037 7.79097 231.773 7.92153 231.528 8.04276C231.282 8.16088 231.074 8.29765 230.879 8.40023C230.111 8.8261 229.726 8.99707 229.978 8.74217C229.987 8.80434 229.546 9.10275 228.828 9.5597C228.483 9.80838 228.073 10.1037 227.619 10.4301C227.389 10.5917 227.15 10.7627 226.899 10.9368C226.774 11.0269 226.644 11.1108 226.52 11.2072C226.398 11.3067 226.274 11.4093 226.147 11.5118C224.056 13.0661 221.872 15.3291 220.458 16.9704L220.725 16.759L221.008 16.5631C220.927 16.644 220.849 16.7248 220.775 16.7994C220.703 16.8802 220.638 16.961 220.57 17.0356C220.436 17.1911 220.312 17.334 220.194 17.4739C219.955 17.7506 219.743 17.9962 219.544 18.2262C219.349 18.4593 219.156 18.6676 218.985 18.8852C218.821 19.109 218.659 19.3297 218.491 19.5566C218.162 20.0198 217.792 20.5109 217.36 21.1762C217.155 21.5181 216.928 21.8973 216.667 22.3263C216.416 22.7646 216.099 23.234 215.813 23.8153C215.279 24.9219 215.44 24.8442 216.139 23.3739C215.257 25.211 214.847 25.8917 214.458 26.7062C214.256 27.1103 214.042 27.5361 213.759 28.1485C213.48 28.7609 213.172 29.5784 212.728 30.7317L213.508 29.0655C213.119 30.0385 212.837 30.7472 212.616 31.3005C212.408 31.8601 212.256 32.2579 212.119 32.5968C211.846 33.2806 211.619 33.7283 211.209 34.8069C210.982 35.4566 210.693 36.2772 210.429 37.1631C210.267 37.7133 210.103 38.2791 209.938 38.8417C209.851 39.1464 209.761 39.451 209.674 39.7525C209.63 39.9048 209.587 40.0572 209.543 40.2095L209.478 40.4364C209.469 40.4923 209.453 40.4613 209.441 40.4706L209.403 40.4768C209.279 40.2188 209.158 39.967 209.04 39.7214C208.903 39.4634 208.773 39.2148 208.648 38.9754C208.524 38.7143 208.388 38.534 208.263 38.3382C208.198 38.2418 208.136 38.1485 208.077 38.0584C208.046 38.0118 208.018 37.9682 207.987 37.9216C207.956 37.875 207.928 37.8284 207.906 37.8097C207.719 37.589 207.561 37.4025 207.431 37.2595C207.294 37.1227 207.191 37.0326 207.129 36.9891C207.061 36.8709 206.927 36.6689 206.716 36.4233C206.517 36.1684 206.234 35.8731 205.905 35.5405C205.234 34.8877 204.305 34.1479 203.249 33.5107C202.938 33.3832 203.674 33.8899 204.019 34.1541C202.578 33.1905 201.229 32.4911 199.993 31.8974C198.75 31.313 197.61 30.8467 196.519 30.4457C194.335 29.653 192.337 29.0997 189.954 28.7484C189.842 28.7826 189.535 28.7609 189.112 28.7111C191.852 29.137 194.282 29.8084 195.954 30.3587C197.628 30.9151 198.563 31.313 198.377 31.2259C198.349 31.2943 197.296 30.9306 196.643 30.7596C196.317 30.6726 196.093 30.6322 196.159 30.6881C196.224 30.7441 196.572 30.9057 197.377 31.2601C195.733 30.5793 193.44 29.768 190.976 29.1992C189.746 28.9132 188.478 28.677 187.248 28.5402C186.633 28.4687 186.03 28.4158 185.437 28.4003C184.846 28.3848 184.275 28.3443 183.731 28.3692C183.538 28.3879 183.308 28.4034 183.156 28.4283L183.613 28.4407C183.11 28.4594 182.637 28.4469 182.184 28.4687C181.73 28.4904 181.295 28.506 180.86 28.5184C180.173 28.5868 179.617 28.6707 179.067 28.736C178.521 28.8262 177.98 28.9163 177.328 29.0251C177.206 29.0779 176.84 29.1805 176.318 29.3049C175.793 29.4137 175.131 29.6033 174.416 29.7991C174.056 29.8862 173.692 30.0136 173.329 30.1317C172.965 30.2561 172.593 30.3555 172.245 30.4954C171.549 30.7659 170.887 30.9959 170.39 31.2383C170.489 31.0083 167.836 32.2269 170.278 30.9803C169.958 31.142 170.651 30.8032 172.046 30.2965C172.353 30.1721 172.723 30.0664 172.931 30.0074L172.795 30.0354C174.171 29.5504 176.032 29.0655 178.154 28.7267C176.427 28.9194 174.578 29.2303 172.291 30.1473C171.692 30.3245 171.076 30.4892 170.551 30.6602C170.026 30.8436 169.579 30.999 169.287 31.1016C168.948 31.2881 168.588 31.5181 168.19 31.7481C167.994 31.8663 167.786 31.9782 167.584 32.1087C167.382 32.2393 167.174 32.373 166.966 32.5097C166.546 32.7771 166.115 33.0506 165.705 33.3552C165.294 33.6568 164.869 33.9303 164.49 34.2412C164.108 34.5427 163.738 34.8349 163.393 35.1084C163.064 35.3975 162.759 35.6649 162.492 35.898C162.358 36.0161 162.234 36.128 162.122 36.2275C162.013 36.3363 161.917 36.4326 161.83 36.5197C161.659 36.6938 161.535 36.8274 161.47 36.9082C160.811 37.446 160.18 38.0739 159.516 38.6987C159.18 39.0065 158.875 39.3577 158.549 39.6904C158.232 40.0323 157.894 40.3587 157.592 40.7255C157.282 41.083 156.971 41.4435 156.66 41.801C156.353 42.1616 156.067 42.5471 155.772 42.917C155.169 43.6506 154.647 44.4401 154.097 45.1862C152.003 48.2449 150.446 51.2726 149.443 53.1968C149.027 54.0796 148.846 54.6174 148.728 55.009C148.61 55.4007 148.56 55.6525 148.455 55.9913C148.669 55.4784 148.902 54.9127 149.114 54.4029C149.328 53.8931 149.542 53.4548 149.685 53.1781C148.856 54.9375 147.824 57.6357 147.075 60.0417C146.892 60.6447 146.718 61.226 146.553 61.7669C146.386 62.3047 146.258 62.8113 146.125 63.2496C145.861 64.1262 145.687 64.7635 145.575 64.9842C145.317 66.1872 145.261 66.6286 145.267 66.7063C145.273 66.7871 145.354 66.5073 145.416 66.2835C145.556 65.839 145.587 65.609 144.925 68.9226C145.003 68.6336 145.071 68.3445 145.155 68.0585C144.674 70.9525 144.31 73.6196 144.003 76.1748C143.698 78.73 143.45 81.1794 143.254 83.6352C142.859 88.5497 142.67 93.514 142.844 99.4792L142.272 99.4885C142.222 98.7269 142.151 97.9467 141.924 97.182C141.731 96.4111 141.399 95.6588 140.98 94.9408C141.119 95.1521 141.206 95.3573 141.293 95.5283C141.377 95.7024 141.458 95.8453 141.511 95.9728C141.613 96.2308 141.685 96.3924 141.735 96.4826C141.088 94.5304 139.743 92.8581 138.093 91.5929C137.267 90.9557 136.369 90.4086 135.421 89.9423C134.474 89.4791 133.483 89.0937 132.473 88.7704C130.447 88.1207 128.325 87.7508 126.191 87.5798C124.056 87.4306 121.891 87.4804 119.793 87.8627C117.702 88.2979 115.646 88.9507 113.685 89.8117C111.731 90.6946 109.864 91.7421 108.077 92.9078C106.3 94.0828 104.622 95.3884 103.016 96.753C101.416 98.127 99.9153 99.5911 98.483 101.089C98.0791 101.515 97.7187 101.898 97.3956 102.236C97.0755 102.581 96.7928 102.886 96.535 103.163C96.0192 103.713 95.6122 104.148 95.2456 104.543C94.503 105.323 93.9096 105.932 92.9589 107.014L92.4618 107.944C91.4178 109.196 90.4174 110.496 89.4946 111.851C87.5652 114.773 86.2852 117.546 85.0797 120.57C83.8773 123.598 82.765 126.896 81.5285 131.13C81.5782 130.751 81.6434 130.375 81.7025 129.995C81.4881 130.763 81.2551 131.764 81.0003 132.821C80.7735 133.881 80.528 135 80.3634 136.013C80.0061 138.034 79.8507 139.616 79.9533 139.352C79.9222 139.52 79.8632 139.781 79.801 140.154C79.7358 140.527 79.6736 141.015 79.6643 141.637L79.7544 141.724C79.4965 144.313 79.4096 146.924 79.5307 149.529C79.6395 151.034 79.7886 151.714 79.857 152.041C79.9346 152.364 79.975 152.327 80.0247 152.376C80.0744 152.426 80.1241 152.563 80.2671 153.225C80.3323 153.558 80.4193 154.018 80.5436 154.667C80.6119 154.991 80.6927 155.357 80.7859 155.78C80.8667 156.203 80.9879 156.672 81.1277 157.201C81.3017 157.997 81.5813 158.938 81.8485 159.905C82.1623 160.853 82.4699 161.826 82.8054 162.641C83.1006 163.471 83.4268 164.133 83.5884 164.546C83.7561 164.957 83.7965 165.096 83.6443 164.823C83.0136 163.666 82.184 161.805 82.0567 161.739C82.4326 162.669 82.7992 163.604 83.2528 164.5C83.2497 164.807 83.4455 165.519 83.2062 165.33C83.0851 165.236 82.8551 164.916 82.4326 164.201C82.2089 163.85 81.9883 163.377 81.7025 162.787C81.4011 162.202 81.1184 161.469 80.7704 160.592C80.2671 158.907 79.8352 157.204 79.568 155.476L79.335 154.661L79.1362 153.837C79.1983 154.201 79.2418 154.565 79.3163 154.925L79.5369 156.007C79.6674 156.731 79.8787 157.44 80.0496 158.155C79.2698 155.78 79.1548 154.173 78.9808 152.395C78.9218 152.19 78.8565 151.91 78.7913 151.553C78.7229 151.195 78.6515 150.757 78.608 150.232L78.58 148.945L78.6018 147.658C78.6018 146.8 78.6732 145.948 78.7167 145.093C78.6639 144.789 78.6048 145.367 78.5582 145.591C78.5334 145.702 78.5117 145.724 78.4899 145.504C78.4682 145.283 78.4495 144.817 78.4744 143.952C78.5862 142.756 78.6235 143.34 78.6639 143.722C78.7136 144.108 78.7291 144.288 78.8876 142.317C78.9031 141.693 78.9031 141.27 78.9031 140.937C78.9062 140.608 78.9156 140.368 78.928 140.12C78.9622 139.622 78.9932 139.069 79.2635 137.636C79.2511 137.238 79.1113 137.826 78.928 138.973C79.0305 138.329 79.1517 137.583 79.2759 136.803C79.422 136.029 79.5587 135.218 79.7171 134.453C79.888 133.691 80.0341 132.964 80.1987 132.355C80.3603 131.745 80.5063 131.248 80.6213 130.931C80.7424 130.294 80.9537 129.445 81.1991 128.537C81.4632 127.633 81.746 126.666 82.0473 125.796C82.327 124.919 82.6128 124.139 82.793 123.582C82.9701 123.026 83.0571 122.697 82.9732 122.734C83.0633 122.55 83.228 122.196 83.4361 121.733C83.5387 121.503 83.6567 121.245 83.781 120.968C83.9115 120.695 84.0513 120.399 84.1942 120.098C84.3371 119.793 84.4863 119.479 84.6385 119.159C84.797 118.845 84.9554 118.525 85.1108 118.211C85.4153 117.577 85.7353 116.974 86.0056 116.442C85.4432 117.384 85.409 117.359 85.6669 116.797C85.7943 116.517 85.9962 116.103 86.2386 115.612C86.4965 115.13 86.7978 114.568 87.1116 113.987C87.441 113.411 87.7858 112.818 88.109 112.255C88.4476 111.699 88.7645 111.176 89.0286 110.738C89.5692 109.871 89.8861 109.336 89.6531 109.526C89.7805 109.364 89.9172 109.19 90.0663 109C90.2186 108.811 90.3832 108.609 90.5572 108.391C90.9021 107.956 91.2749 107.462 91.7099 106.949C91.9212 106.688 92.1417 106.417 92.3686 106.141C92.5985 105.87 92.8377 105.59 93.0831 105.304C93.5647 104.726 94.0867 104.142 94.6211 103.539C96.7493 101.124 99.2628 98.6212 101.472 96.7996C101.348 96.8929 101.158 97.039 100.953 97.1944C100.754 97.3592 100.54 97.5457 100.363 97.7197C100.944 97.1602 101.447 96.7282 101.873 96.3427C102.295 95.9572 102.652 95.6308 102.994 95.3418C103.333 95.0496 103.64 94.7791 103.964 94.4962C104.287 94.2134 104.644 93.9429 105.048 93.6197C105.172 93.6041 105.514 93.3989 106.005 93.0974C106.505 92.8083 107.142 92.4042 107.847 91.9753C109.276 91.1453 110.973 90.2096 112.237 89.7092C113.101 89.2305 113.393 89.0377 113.359 89.016C113.322 88.9787 112.961 89.1217 112.52 89.2926C112.079 89.4667 111.56 89.6719 111.221 89.8055C110.886 89.9454 110.721 89.9858 110.97 89.7869C110.945 89.8522 111.315 89.6843 111.889 89.4512C112.461 89.2118 113.21 88.8512 113.962 88.5901C114.335 88.4502 114.698 88.3134 115.024 88.1922C115.354 88.0772 115.655 87.9995 115.882 87.9311C116.342 87.8037 116.531 87.7726 116.224 87.9156C116.581 87.7788 116.885 87.6638 117.149 87.5612C117.42 87.4804 117.65 87.4089 117.848 87.3498C118.246 87.2286 118.516 87.1478 118.743 87.0794C118.967 87.0048 119.15 86.9488 119.377 86.8835C119.601 86.8183 119.862 86.7281 120.247 86.6224C120.552 86.725 121.266 86.6255 122.229 86.5634C123.192 86.495 124.407 86.4546 125.662 86.6131C126.762 86.6349 127.384 86.6784 127.775 86.6939C128.167 86.7032 128.325 86.7064 128.499 86.7126C128.673 86.7188 128.856 86.7312 129.301 86.8058C129.521 86.8494 129.804 86.9053 130.183 86.9799C130.559 87.0763 131.031 87.1695 131.618 87.3467C132.184 87.4711 132.349 87.499 132.274 87.4555C132.202 87.4058 131.892 87.3063 131.51 87.182C131.128 87.0545 130.668 86.9488 130.307 86.8493C129.965 86.7468 129.698 86.6877 129.698 86.6877ZM184.936 27.3496V27.3465C184.694 27.3372 184.458 27.3279 184.234 27.3185C184.011 27.3185 183.796 27.3185 183.597 27.3216C183.197 27.3248 182.852 27.3248 182.584 27.3279C182.827 27.3279 183.116 27.3248 183.495 27.3248C183.684 27.3248 183.896 27.3216 184.135 27.3216C184.371 27.3216 184.635 27.3372 184.936 27.3496ZM194.413 28.879C193.297 28.5713 191.871 28.22 190.346 27.9402C190.026 27.9465 190.339 28.049 191.299 28.2449C190.793 28.0988 193.036 28.5215 194.413 28.879ZM174.643 29.6934C175 29.6002 175.296 29.5225 175.544 29.4603C175.793 29.395 175.995 29.3577 176.153 29.3173C176.473 29.2396 176.638 29.1867 176.734 29.1494C176.399 29.2209 176.029 29.2955 175.616 29.3826C175.206 29.4883 174.752 29.6064 174.236 29.7401L174.044 29.7711C174.211 29.7556 174.37 29.7432 174.643 29.6934Z" fill="white"/>
<path d="M172.052 30.2903C171.834 30.368 171.741 30.4022 171.474 30.4986C171.778 30.3649 172.061 30.2437 172.297 30.1411C172.465 30.0976 172.633 30.0665 172.8 30.0292C172.549 30.1069 172.297 30.1909 172.052 30.2903Z" fill="white"/>
<path d="M87.0119 213.017L87.2201 213.033C87.0368 213.023 86.8845 213.014 86.7758 213.014C86.8783 213.014 86.9311 213.014 87.0119 213.017Z" fill="white"/>
<path d="M300.741 10.8032L300.719 10.8405L300.026 10.3649L300.741 10.8032Z" fill="white"/>
<path d="M35.1666 206.091C35.0609 206.085 34.8528 206.057 34.4675 205.995C34.4924 205.992 34.8031 206.035 35.1666 206.091Z" fill="white"/>
<path d="M13.1228 200.913L10.0501 200.039C11.3798 200.4 12.3554 200.692 13.1228 200.913Z" fill="white"/>
<path d="M0.0987068 191.559C0.170179 191.432 0.238551 191.335 0.300701 191.254L0.278965 191.304C0.210601 191.382 0.154642 191.469 0.0987068 191.559Z" fill="white"/>
<path d="M257.3 203.496C257.076 203.452 256.843 203.406 256.638 203.365C255.112 203.057 256.16 203.259 257.3 203.496Z" fill="white"/>
<path d="M188.549 215.861C189.438 215.824 190.296 215.784 191.203 215.731C189.752 215.858 188.615 215.955 188.549 215.861Z" fill="white"/>
<path d="M193.931 190.309L193.906 190.303L194.477 190.35L193.931 190.309Z" fill="white"/>
<path d="M195.012 215.411C193.564 215.569 192.346 215.659 191.206 215.728C192.399 215.622 193.816 215.491 195.012 215.411Z" fill="white"/>
<path d="M63.9181 156.654L64.7787 156.735C64.7569 156.744 64.8067 156.759 64.8564 156.772L63.9181 156.654Z" fill="white"/>
<path d="M64.8564 156.772C65.1702 156.809 65.484 156.847 65.7946 156.906C65.3814 156.834 64.9806 156.809 64.8564 156.772Z" fill="white"/>
<path d="M67.7334 157.263C67.0933 157.117 66.4409 157.027 65.7946 156.906C66.4689 157.018 67.3077 157.114 67.7334 157.263Z" fill="white"/>
<path d="M41.1101 159.939L40.8429 159.971C40.9827 159.933 41.0635 159.927 41.1101 159.939Z" fill="white"/>
<path d="M34.5795 162.548C35.3313 162.181 36.2914 161.749 37.3291 161.276C37.8573 161.059 38.401 160.832 38.954 160.605C39.507 160.381 40.0756 160.188 40.6348 159.995L40.8461 159.971C40.3148 160.114 39.1031 160.577 37.8572 161.121C36.6083 161.658 35.322 162.255 34.5795 162.548Z" fill="white"/>
<path d="M10.9542 179.529C12.3554 178.186 13.8126 176.899 15.3132 175.665C14.9342 176.001 14.5147 176.418 14.4277 176.526C14.35 176.641 14.5986 176.443 15.6301 175.628C14.232 176.816 13.6292 177.369 13.3869 177.574C13.1446 177.779 13.2657 177.642 13.3807 177.506C13.4925 177.369 13.5951 177.235 13.3092 177.45C13.1663 177.555 12.9271 177.751 12.5449 178.078C12.1659 178.41 11.6439 178.873 10.9542 179.529Z" fill="white"/>
<path d="M0.589546 193.66C0.558475 193.315 0.586434 193.051 0.623719 192.862C0.645468 192.672 0.69519 192.554 0.710726 192.489C0.754225 192.361 0.741799 192.454 0.713836 192.625C0.692086 192.712 0.695166 192.818 0.685845 192.927C0.679631 193.036 0.661017 193.148 0.676553 193.244C0.688981 193.437 0.698294 193.577 0.707616 193.533C0.754221 194.379 1.11773 194.832 1.12084 194.904C1.13016 194.938 1.08044 194.87 0.953048 194.686C0.887799 194.596 0.838117 194.459 0.751119 194.298C0.698299 194.127 0.620616 193.922 0.589546 193.66Z" fill="white"/>
<path d="M127.865 216.234L127.548 216.06C129.971 216.228 127.567 216.122 127.865 216.234Z" fill="white"/>
<path d="M152.901 217.919L150.53 218L149.415 217.851L152.901 217.919Z" fill="white"/>
<path d="M167.671 216.315L166.633 216.349L170.669 216.182L167.671 216.315Z" fill="white"/>
<path d="M219.504 190.633L218.761 190.776C217.133 190.636 216.81 190.403 219.504 190.633Z" fill="white"/>
<path d="M314.56 194.385C315.601 194.298 318.279 194.236 319.913 194.332C317.782 194.341 315.651 194.416 314.56 194.385Z" fill="white"/>
<path d="M318.052 29.0345C318.413 29.5567 318.748 30.0976 319.1 30.626C318.764 30.1349 318.438 29.6375 318.093 29.1495L317.049 27.701L318.052 29.0345Z" fill="white"/>
</svg>
