<svg width="238" height="167" viewBox="0 0 238 167" fill="none" xmlns="http://www.w3.org/2000/svg">
<path fill-rule="evenodd" clip-rule="evenodd" d="M196.225 133.402C199.659 128.868 198.275 113.381 189.738 117.504C193.134 110.736 198.397 105.127 201.416 97.8937C211.526 73.6489 210.905 42.4644 191.604 22.1407C171.615 1.09495 141.034 -4.54748 114.416 5.65424C81.3862 18.3161 61.8125 55.1389 77.2015 87.9691C66.6682 78.9429 54.5918 76.6129 41.3204 80.8237C26.5395 85.5131 15.2934 93.494 7.31795 107.499C0.776596 118.986 -0.691016 134.481 3.04091 147.135C7.00766 160.578 17.4487 164.898 30.3301 165.473C49.4678 166.325 68.7899 165.653 87.9528 165.771C111.535 165.918 133.973 163.831 157.643 165.04C169.573 165.649 181.444 164.352 193.357 164.385C207.924 164.423 222.81 163.81 237.402 163.034C236.853 157.719 237.888 153.008 235.578 147.651C233.339 142.458 230.223 137.072 226.026 133.235C219.199 126.983 201.626 123.268 196.225 133.402Z" fill="white"/>
<path d="M195.848 132.983C195.701 133.369 195.952 133.247 196.497 132.282L196.753 131.475C196.59 131.719 196.422 131.962 196.267 132.21L195.848 132.983Z" fill="white"/>
<path d="M201.588 128.44C202.137 128.108 202.766 127.815 203.144 127.579C203.525 127.365 203.655 127.206 203.207 127.202C202.913 127.34 202.682 127.487 202.473 127.584C202.263 127.693 202.074 127.768 201.894 127.878C201.529 128.087 201.143 128.285 200.615 128.759C200.372 128.889 200.154 129.024 199.961 129.141C199.764 129.259 199.588 129.351 199.445 129.422C199.169 129.582 199.013 129.641 199.06 129.54C198.774 129.817 197.676 130.611 197.433 131.203C198.527 130.258 199.915 129.137 201.596 128.243C201.978 128.138 201.647 128.36 201.588 128.44Z" fill="white"/>
<path d="M191.059 164.008L191.734 164.037C191.549 164.02 191.319 164.008 191.059 164.008Z" fill="white"/>
<path d="M125.788 164.385C126.287 164.364 126.48 164.331 126.517 164.306C126.056 164.339 125.67 164.364 125.788 164.385Z" fill="white"/>
<path d="M114.634 164.44C114.894 164.44 115.078 164.44 115.288 164.436C115.049 164.419 114.789 164.415 114.634 164.44Z" fill="white"/>
<path d="M191.059 164.008L189.314 163.953C189.193 164.041 190.208 164.003 191.059 164.008Z" fill="white"/>
<path d="M216.042 127.412C215.669 127.332 215.363 127.273 215.077 127.244C215.388 127.302 215.677 127.374 215.966 127.437L216.042 127.412Z" fill="white"/>
<path d="M219.816 163.248L220.352 163.227C220.474 163.193 220.612 163.151 220.776 163.101L219.816 163.248Z" fill="white"/>
<path d="M236.572 158.525C236.567 159.037 236.798 159.201 236.903 159.385C236.802 159.108 236.756 158.739 236.735 158.306C236.685 158.29 236.634 158.353 236.572 158.525Z" fill="white"/>
<path d="M220.432 129.951C220.239 129.872 220.042 129.796 219.845 129.729C220.025 129.796 220.218 129.863 220.432 129.951Z" fill="white"/>
<path d="M204.033 163.647C203.987 163.613 203.903 163.584 203.815 163.567C203.815 163.596 203.903 163.626 204.033 163.647Z" fill="white"/>
<path d="M192.3 115.086C192.288 115.077 192.279 115.073 192.267 115.065C192.225 115.178 192.216 115.228 192.3 115.086Z" fill="white"/>
<path d="M196.233 133.289L196.422 132.983L196.355 132.857L196.233 133.289Z" fill="white"/>
<path d="M94.2595 164.633L94.3517 164.637C94.8842 164.604 94.5781 164.612 94.2595 164.633Z" fill="white"/>
<path d="M44.1509 80.9958C43.1235 81.1805 43.9118 80.8615 44.5995 80.6516C45.283 80.4249 45.8449 80.2233 44.2808 80.4626C44.5702 80.4458 41.6182 81.5793 44.1509 80.9958Z" fill="white"/>
<path d="M216.604 127.596C216.881 127.676 217.187 127.76 217.484 127.857C217.082 127.722 216.809 127.651 216.604 127.596Z" fill="white"/>
<path d="M44.2811 80.4668L43.9498 80.5172C44.0882 80.4962 44.1637 80.4836 44.2811 80.4668Z" fill="white"/>
<path d="M47.2748 164.902C47.367 164.944 47.5515 164.977 47.7402 165.007C47.7276 164.982 47.627 164.952 47.2748 164.902Z" fill="white"/>
<path d="M82.2794 165.099L81.4198 165.07C81.7595 165.087 82.0362 165.095 82.2794 165.099Z" fill="white"/>
<path d="M29.1352 164.73C28.6655 164.679 28.5146 164.646 27.8772 164.625C27.9359 164.642 27.9946 164.658 28.0617 164.671C28.3007 164.658 28.6068 164.663 29.1352 164.73Z" fill="white"/>
<path d="M11.7167 159.209C11.7964 159.293 11.8719 159.373 11.9557 159.461C12.1151 159.574 12.2828 159.671 12.4463 159.776C12.1906 159.604 11.939 159.423 11.7167 159.209Z" fill="white"/>
<path d="M208.67 60.5672C208.645 60.9996 208.582 61.2599 208.519 61.4656C208.662 61.1591 208.871 63.9761 208.67 60.5672Z" fill="white"/>
<path d="M216.013 127.533C216.147 127.508 216.306 127.517 216.604 127.596C216.382 127.533 216.172 127.479 215.971 127.437C215.925 127.458 215.899 127.487 216.013 127.533Z" fill="white"/>
<path d="M28.2337 166.48C27.7263 166.451 27.219 166.371 26.7116 166.317C26.2042 166.249 25.6968 166.212 25.1895 166.124C25.6088 166.207 26.0952 166.249 26.6151 166.317C27.1351 166.371 27.6844 166.455 28.2337 166.48Z" fill="white"/>
<path d="M105.329 8.86585L105.937 8.5132C105.682 8.63915 105.468 8.7609 105.329 8.86585Z" fill="white"/>
<path d="M16.2872 163.861C15.8049 163.563 15.2808 163.277 14.7399 163.008C14.6057 162.958 14.4715 162.899 14.3877 162.887C14.6896 163.084 15.0124 163.227 15.3269 163.386L16.2872 163.861Z" fill="white"/>
<path d="M207.689 81.4945C208.2 78.6313 207.634 80.109 207.576 79.4625C208.024 76.041 208.033 77.9092 208.364 76.7589C208.473 75.6841 208.473 74.7227 208.502 73.8369C208.502 72.9468 208.502 72.1282 208.574 71.3263C208.636 71.2046 208.666 70.8939 208.708 71.2591C208.649 70.1172 208.745 68.4295 208.745 66.6831C208.754 64.9408 208.691 63.144 208.465 61.8257C208.481 61.6242 208.502 61.5276 208.523 61.4815C208.393 61.9097 208.242 61.9936 208.129 61.9097C208.104 61.2589 208.012 60.6628 207.945 60.1716C207.882 59.6762 207.852 59.2858 207.932 59.0381C207.991 59.8273 208.075 59.8819 208.163 60.2472L207.97 58.9121C208.154 57.6653 208.213 60.7426 208.423 60.7258C208.171 58.0725 207.517 55.0623 207.249 53.0514C207.488 52.5812 208.058 57.7282 207.903 55.0078C208.041 56.0489 208.1 57.0985 208.188 58.1397C208.347 55.7173 208.376 60.0457 208.586 57.7996C208.41 55.7257 208.167 54.5837 207.966 53.4418C207.727 52.3041 207.488 51.1706 207.06 49.1386C206.699 48.2528 206.905 49.4871 206.552 48.6181C205.697 45.8052 205.475 44.6717 205.349 43.6935C205.278 43.2107 205.198 42.7783 205.039 42.2115C204.879 41.649 204.628 40.9521 204.129 39.9865C203.538 39.0083 203.085 38.7312 201.923 35.8764C202.171 36.1493 202.435 36.4138 202.67 36.695C202.246 35.7798 201.919 35.2173 201.676 34.81C201.433 34.407 201.256 34.1677 201.068 33.9284C200.883 33.6891 200.699 33.4414 200.447 33.0174C200.196 32.5934 199.881 31.9888 199.361 31.0736C199.889 31.632 201.026 33.7563 200.766 33.2021C200.489 32.5766 200.284 32.1652 200.108 31.8713C199.923 31.5816 199.78 31.4095 199.646 31.2583C199.37 30.9519 199.11 30.7294 198.556 29.8351L198.543 29.3229C196.137 25.767 192.958 22.2279 189.461 19.0499C189.708 19.1716 190.363 19.6628 189.612 18.8441C187.398 16.8374 184.958 14.7802 182.404 12.912C179.859 11.0312 177.217 9.32253 174.705 7.89093C174.009 7.62644 173.33 7.33677 172.63 7.09327C172.173 6.87496 171.816 6.58948 172.345 6.7868C170.349 5.74143 172.173 6.87496 171.154 6.49292C170.575 6.22003 170.202 6.02692 170.076 5.92196C169.95 5.817 170.068 5.80861 170.458 5.93455C168.596 5.22085 165.937 4.25946 163.216 3.42821C160.49 2.60535 157.715 1.92524 155.702 1.36267L156.515 1.47183C155.727 1.25772 155.094 1.16955 154.553 1.10658C154.012 1.04361 153.559 1.01842 153.115 0.989028C152.221 0.968037 151.37 0.905064 149.89 0.615385L150.464 0.636376C146.988 0.128389 143.282 -0.0479367 139.789 0.0108387C136.296 0.0612176 133.021 0.334103 130.337 0.552412C129.851 0.779116 128.127 1.02681 126.484 1.32489C125.666 1.48862 124.861 1.64395 124.249 1.80769C123.637 1.98401 123.209 2.15194 123.129 2.29468C122.634 2.38284 122.219 2.45841 121.859 2.52558C121.502 2.59695 121.2 2.65993 120.932 2.7145C120.395 2.81946 119.988 2.89923 119.536 2.99159C119.079 3.07555 118.584 3.21829 117.858 3.41141C117.494 3.51217 117.074 3.62972 116.575 3.77246C116.08 3.93619 115.506 4.12091 114.835 4.34342C114.118 4.58272 113.619 4.8724 113.087 5.18307C112.554 5.49374 111.984 5.8254 111.132 6.20324L110.99 5.98913L108.797 7.30318C108.344 7.40394 107.891 7.5005 107.451 7.63064L105.933 8.50388C106.562 8.18901 107.296 7.91193 107.233 8.02948C106.642 8.37373 105.971 8.73058 105.296 9.07484C104.629 9.43169 103.975 9.79693 103.379 10.1034C102.18 10.6996 101.299 11.1866 101.237 11.1446C100.352 11.7743 99.4461 12.3747 98.5991 13.059C97.7437 13.7307 96.8715 14.3688 96.058 15.0909C96.1041 14.923 96.9302 14.2051 97.6011 13.6635C97.2698 13.9448 97.0099 14.1547 96.8044 14.3184C96.6073 14.4864 96.4648 14.6039 96.3557 14.6879C96.1377 14.8516 96.0622 14.8642 95.9951 14.8768C95.8567 14.8978 95.7435 14.8978 94.5736 15.9851C94.9384 15.7668 94.4856 16.2496 94.4688 16.3252C93.8147 16.7786 92.8125 17.6141 91.7348 18.5587C90.7033 19.5578 89.546 20.6242 88.678 21.636L88.9086 21.1406C85.5164 24.5915 82.2457 28.8989 79.474 33.5716C80.0023 32.7445 80.3084 32.4968 80.3378 32.5934C80.3839 32.7025 80.1533 33.1601 79.7801 33.8612L79.2434 34.2685C78.8744 35.2467 80.1491 32.8831 79.2811 34.81C78.258 36.5397 78.346 35.8428 78.8408 34.7974L78.2747 35.8848C78.0902 36.25 77.9267 36.6279 77.7548 36.9973C77.6206 37.0855 77.8429 36.5523 77.8219 36.376C77.6667 36.863 77.1258 37.7782 76.5765 38.7606C76.0733 39.764 75.5576 40.8303 75.3898 41.5566C75.3479 41.5902 75.3018 41.6238 75.264 41.6574C75.0208 42.2913 74.7902 42.8833 74.5764 43.4374C74.3667 43.9958 74.1529 44.5122 74.0019 45.0244C73.6832 46.0403 73.3687 46.9471 73.1255 47.8414C72.8949 48.7398 72.6685 49.6046 72.4336 50.5157C72.2408 51.4351 72.0353 52.4007 71.8089 53.4838C72.0059 53.6056 71.6873 55.31 71.6621 56.6325C71.1715 59.8357 70.7773 63.442 71.008 67.359C71.2973 70.1046 71.247 68.1441 71.465 69.3657C71.2805 69.5757 71.7669 73.4674 71.377 71.4817C71.4986 72.653 71.7208 73.5934 71.8718 74.454C71.9556 74.8822 72.0311 75.2937 72.1066 75.6967C72.2072 76.0955 72.3078 76.486 72.4085 76.889C72.8068 78.4927 73.3016 80.2392 74.3583 83.0016C74.2157 82.3719 74.0103 81.6876 74.2032 82.015C74.4044 82.5146 74.5931 83.094 74.7147 83.539C74.7315 83.5936 74.7441 83.6482 74.7567 83.6985C74.7651 83.7405 74.7651 83.7531 74.7692 83.7783C74.7734 83.8245 74.7734 83.8623 74.7734 83.8875C74.7693 83.942 74.7483 83.963 74.7147 83.9504L74.6518 83.8455C74.786 84.1142 74.9328 84.4542 75.0921 84.7817C75.1634 84.9454 75.2347 85.1091 75.3102 85.2771L75.4066 85.5122L75.4527 85.6255L75.4737 85.6801C75.4779 85.6969 75.4989 85.7305 75.4653 85.6969C75.2011 85.4702 74.937 85.2351 74.6896 85.0126C74.5764 84.9034 74.4338 84.7901 74.2996 84.6809L73.9222 84.3661L73.7503 84.2191C73.7168 84.1939 73.7042 84.1771 73.6622 84.1435L73.44 83.9924C73.1423 83.7909 72.8446 83.5852 72.5511 83.3837C72.2533 83.1822 71.9598 82.9806 71.6705 82.7833C71.3728 82.5944 71.0667 82.4223 70.7648 82.2459C69.5781 81.5112 68.3537 80.9361 67.2048 80.4197C66.0265 79.9663 64.9279 79.5591 63.8963 79.3618L64.1899 79.4289L62.8438 79.0763C62.391 78.9797 61.9339 78.8999 61.4811 78.8076C60.5753 78.6103 59.657 78.5137 58.7387 78.4046C58.1098 78.287 57.8875 78.2576 57.8833 78.2408C57.8791 78.224 58.093 78.2114 58.3236 78.2282C58.789 78.2534 59.3425 78.2786 58.4117 78.0645C55.4093 77.8504 53.0528 77.8882 50.822 77.9973C49.715 78.1107 48.629 78.1611 47.5388 78.3752C46.9936 78.4717 46.4359 78.5557 45.8741 78.6858C45.3122 78.8244 44.7419 78.9755 44.1507 79.1434C43.6684 79.1644 43.1108 79.2694 42.486 79.4079C41.8654 79.5549 41.1567 79.6976 40.4439 79.9369C39.7227 80.1636 38.9553 80.4155 38.167 80.6842C37.3871 80.9865 36.5736 81.2971 35.7559 81.6162C32.4936 82.9386 29.2271 84.6557 26.9167 85.7893L27.2438 85.7641C26.1871 86.5617 25.8139 86.4778 24.9836 86.9984C25.0717 87.0067 25.3904 86.8388 25.6042 86.7339C25.8223 86.6373 25.9355 86.5953 25.6042 86.843C16.1528 92.8339 7.87129 102.049 3.3762 112.788C3.17912 113.284 3.01559 113.687 2.91495 114.039C2.81431 114.392 2.74722 114.682 2.69271 114.933C2.59208 115.437 2.56692 115.777 2.52079 116.151C2.46628 116.52 2.43693 116.928 2.28178 117.549C2.13502 118.174 1.86246 119.006 1.50604 120.282C1.53539 119.774 1.54378 119.258 1.58571 118.75C0.688373 122.918 0.126487 127.23 0.0174644 131.546C-0.0957514 135.857 0.340339 140.177 1.35928 144.212C1.19575 143.733 1.11188 143.733 0.944157 142.932C0.986089 143.372 1.09092 143.994 1.2251 144.674C1.36347 145.354 1.5941 146.084 1.78699 146.764C1.97149 147.445 2.23566 148.058 2.42016 148.507C2.60885 148.952 2.74722 149.229 2.78916 149.22C2.99043 149.838 2.98204 149.922 2.9485 149.951C2.91495 149.98 2.84367 149.955 2.96946 150.346C3.28814 151.185 3.74101 152.222 4.31967 153.074C4.58803 153.511 4.84381 153.922 5.04928 154.288C5.28829 154.632 5.47279 154.93 5.56923 155.157C5.63213 155.308 5.23378 154.779 5.03251 154.502C5.21701 154.733 5.50214 155.136 5.82082 155.589C5.98016 155.816 6.1395 156.059 6.31562 156.294C6.50431 156.517 6.693 156.74 6.86492 156.949C7.21715 157.365 7.52745 157.722 7.71614 157.911C7.91322 158.087 7.9845 158.1 7.82516 157.865C8.37866 158.44 8.91958 159.011 9.48566 159.519C10.0853 159.989 10.6556 160.472 11.2468 160.883C11.859 161.269 12.4377 161.668 13.0205 162.017C13.6159 162.34 14.1904 162.667 14.7355 162.999C15.5448 163.209 16.7482 163.826 17.8972 164.208C18.1823 164.313 18.4591 164.41 18.7148 164.506C18.9748 164.594 19.2222 164.649 19.4445 164.704C19.8847 164.804 20.216 164.855 20.3628 164.8C20.2831 164.872 20.564 165.027 21.0756 165.199C21.5872 165.35 22.3252 165.531 23.1303 165.703C23.9437 165.837 24.8285 165.967 25.6294 166.055C26.4345 166.118 27.1599 166.156 27.6547 166.165C27.3234 166.181 27.7428 166.27 28.1537 166.324C28.5646 166.383 28.9588 166.45 28.5688 166.5C29.1265 166.53 29.6758 166.559 30.179 166.589C30.678 166.601 31.1225 166.601 31.4957 166.597C32.2337 166.584 32.6488 166.538 32.4601 166.433C36.5107 167.029 40.6536 166.328 42.9221 166.92C49.5054 166.828 55.5645 166.673 61.4601 166.551C61.2546 166.924 54.9313 166.618 55.1997 167C60.7892 166.836 64.0221 166.488 69.5739 166.534C71.0038 166.572 68.7604 166.702 68.2698 166.765C73.8509 166.568 79.0673 166.715 84.0446 166.521C84.0278 166.555 83.4911 166.593 82.9795 166.622C83.9649 166.61 85.2564 166.677 85.139 166.513L84.1955 166.555C82.6315 166.307 88.0868 166.064 88.2587 165.934C86.594 166.412 93.1689 166.055 90.5356 166.66C91.1855 166.626 91.9864 166.551 91.8481 166.437C92.8041 166.471 93.1102 166.53 92.1248 166.664C95.6471 166.542 94.4059 166.383 97.5718 166.345C97.5634 166.425 96.926 166.471 96.5947 166.568C98.2091 166.379 99.8235 166.207 102.52 166.207C102.352 166.261 102.675 166.316 101.874 166.332C106.491 166.202 109.728 165.703 114.789 165.694C113.309 166.093 116.512 165.753 116.802 166.047L119.506 165.871L118.412 165.757C120.798 165.686 122.894 165.396 124.957 165.438L123.188 165.615L127.654 165.43L125.129 165.384C127.524 165.161 124.861 165.002 128.031 165.006C127.385 165.052 130.417 164.951 131.666 165.102C132.832 164.985 134.044 164.863 135.814 164.909C136.262 165.002 135.449 165.249 135.742 165.312C136.904 165.044 141.315 165.191 142.795 164.934C142.305 164.997 142.271 165.157 142.443 165.191L143.412 164.985C144.519 165.052 144.686 165.086 144.502 165.212C147.819 165.296 143.458 164.813 147.391 165.031C147.085 165.044 147.219 165.077 146.573 165.098C150.536 165.224 154.226 165.153 157.861 165.417C158.905 165.77 154.67 165.358 155.895 165.665C157.199 165.707 158.541 165.732 159.891 165.753C161.241 165.753 162.6 165.741 163.95 165.703C166.654 165.636 169.33 165.514 171.871 165.468L170.931 165.463C171.623 165.01 174.726 165.552 177.284 165.233C176.655 165.291 176.462 165.51 176.63 165.451C180.11 165.379 183.725 165.01 188.991 164.754L188.333 164.88C190.392 164.922 193.717 164.871 195.94 164.926C196.602 164.813 197.864 164.825 197.093 164.666C203.932 165.266 210.121 164.141 216.18 164.46C215.455 164.489 214.461 164.615 215.035 164.594L220.193 164.305C219.769 164.133 219.514 164.217 218.432 164.112C219.073 163.973 220.532 163.835 221.807 163.78C219.493 164.002 221.837 164.082 222.839 164.145C222.667 164.095 223.019 164.015 222.918 163.96C225.627 164.179 223.371 163.566 227.053 163.625L226.852 163.734C228.24 163.62 229.485 163.431 230.986 163.385C231.611 163.57 229.506 163.557 229.43 163.742C231.523 163.629 233.527 163.129 235.406 163.247C234.538 163.356 233.263 163.419 232.378 163.524C233.414 163.599 233.993 163.616 234.504 163.612C234.76 163.608 234.995 163.599 235.267 163.591C235.552 163.583 235.867 163.57 236.265 163.557L236.056 163.562L237.913 163.511C237.938 163.507 237.976 163.515 237.985 163.503L237.955 162.97C237.934 162.558 237.901 162.143 237.884 161.714C237.875 161.383 237.863 161.122 237.867 160.82C237.859 160.971 237.855 161.122 237.855 161.274L237.846 161.756L237.72 161.244C237.683 161.085 237.649 160.921 237.624 160.757C237.569 160.43 237.527 160.098 237.502 159.762C237.444 159.086 237.435 158.394 237.427 157.672C237.41 156.227 237.427 154.649 237.033 152.915C237.389 154.603 237.406 154.75 237.439 154.489C237.465 154.229 237.431 153.57 237.565 153.692C237.565 153.234 237.527 152.655 237.506 152.239C237.477 151.823 237.473 151.571 237.54 151.773C237.305 150.938 237.167 150.228 236.978 149.439C236.865 149.048 236.752 148.633 236.571 148.188C236.387 147.743 236.165 147.264 235.854 146.76C235.892 146.63 235.112 145.119 235.456 145.392C234.441 143.431 235.557 145.908 235.376 145.782C234.546 144.309 233.724 142.516 232.668 140.618C231.611 138.733 230.298 136.735 228.541 135.03C227.078 133.523 226.076 132.751 225.057 132.1C224.03 131.462 223.011 130.908 221.275 130.11C220.717 129.778 220.985 129.82 221.396 129.959C221.598 130.03 221.837 130.127 222.025 130.202C222.214 130.278 222.348 130.341 222.348 130.341C220.533 129.249 219.04 128.666 217.123 128.154C217.522 128.2 217.161 128.032 216.595 127.772C215.035 127.377 215.497 127.738 213.463 127.217C213.832 127.188 214.318 127.142 215.09 127.222C213.22 126.869 211.349 126.747 209.4 126.764C208.871 126.613 210.582 126.579 211.278 126.584C210.18 126.5 208.741 126.47 207.504 126.605C206.263 126.726 205.232 126.966 204.917 127.146C205.387 127.079 205.861 127.045 206.33 127.012C205.529 127.134 205.882 126.869 206.477 126.768C208.364 126.42 209.207 126.747 209.316 126.814C208.85 126.831 208.389 126.831 207.924 126.877C208.636 127.075 210.008 127.058 211.559 127.159C213.106 127.247 214.834 127.469 216.172 127.856L214.964 127.898C215.903 128.032 216.851 128.187 217.786 128.41C218.339 128.687 218.641 128.989 217.346 128.607C218.251 128.989 218.667 129.128 219.052 129.241C219.434 129.363 219.79 129.472 220.52 129.904C220.675 130.009 220.604 129.993 220.44 129.934C221.036 130.165 221.619 130.421 222.197 130.694C221.841 130.58 222.365 131.046 221.35 130.467C222.839 131.328 224.017 132.029 224.927 132.667C225.828 133.305 226.474 133.88 226.839 134.43L226.621 134.237C228.319 135.908 228.391 136.009 228.445 135.916C228.466 135.874 228.466 135.803 228.621 135.899C228.776 135.996 229.091 136.265 229.707 136.936C230.043 137.705 230.349 138.486 230.634 139.262L231.108 139.527C231.372 139.93 231.867 140.778 231.691 140.681C232.781 142.159 231.628 140.35 232.307 141.181C232.827 142.268 233.636 143.7 234.257 144.972C234.886 146.24 235.339 147.335 235.267 147.659C235.783 148.372 234.483 145.505 235.62 147.793C235.59 148.007 235.645 148.28 235.754 148.603C235.854 148.931 235.997 149.313 236.152 149.741C236.45 150.602 236.752 151.664 236.794 152.76C236.504 152.13 236.236 150.119 236.42 152.26C236.71 152.873 236.806 153.931 236.794 155.052C236.789 156.177 236.697 157.369 236.743 158.293C236.894 158.331 236.919 159.33 236.974 160.715C236.982 160.887 236.991 161.068 236.999 161.253C237.008 161.429 237.02 161.609 237.028 161.79C237.045 162.088 237.079 162.395 237.104 162.709C237.112 162.735 237.091 162.735 237.07 162.735L236.894 162.747L236.659 162.76L236.186 162.789C235.796 162.819 235.41 162.848 235.037 162.877C235.23 162.768 229.221 163.012 226.344 163.033L226.42 162.978C225.879 163.301 222.906 163.377 220.763 163.524C220.83 163.343 221.229 163.255 222.394 163.125L220.369 163.209C219.878 163.322 219.249 163.398 217.95 163.482L218.449 163.238C215.744 163.348 213.014 163.692 209.538 163.633C209.341 163.847 212.318 164.141 208.645 164.372C208.498 164.263 208.364 164.074 209.316 164.007C209.01 164.028 208.196 164.128 207.563 164.095L209.035 163.868C207.45 163.822 208.209 164.049 206.93 164.057C206.955 163.898 205.991 163.96 206.171 163.83C206.494 163.809 207.282 163.877 207.773 163.801C206.339 163.805 204.619 163.742 204.045 163.629C204.171 163.717 204.049 163.847 203.005 163.881C200.3 163.931 202.066 163.7 200.497 163.637C199.835 163.759 198.116 163.658 198.074 163.898C197.29 163.902 197.135 163.788 196.824 163.725C195.449 163.835 190.3 163.767 191.872 164.023L192.241 164.04L192.01 164.053C187.423 164.309 182.458 164.162 177.93 164.456L177.926 164.376C175.225 164.59 171.892 164.678 169.959 164.897C169.158 164.922 168.063 164.796 168.403 164.691C166.331 164.783 166.097 164.892 163.107 164.741C165.187 164.611 162.386 164.624 165.241 164.645C162.553 164.573 161.941 164.443 159.065 164.565C160.054 164.401 157.06 164.221 155.773 164.229L157.643 164.456C156.209 164.426 154.947 164.351 153.656 164.28L154.36 164.04C148.833 163.503 144.376 164.364 140.174 163.818C138.711 164.007 143.181 163.956 141.868 164.175C139.327 164.124 136.677 163.784 135.876 163.784C132.384 163.696 132.631 164.225 128.995 164.212C129.461 164.296 129.914 164.544 127.192 164.699C124.655 164.737 124.056 164.384 125.653 164.259C126.27 164.233 126.563 164.254 126.53 164.288C127.343 164.229 128.429 164.162 127.419 164.082L127.1 164.187C125.834 164.124 122.324 164.238 123.15 164.053C121.221 164.204 122.324 164.233 123.758 164.242C120.492 164.2 118.668 164.397 115.301 164.414C115.833 164.447 116.328 164.548 115.804 164.561C110.881 164.599 113.644 164.813 110.306 164.964C108.411 164.876 110.973 164.594 107.627 164.817C105.577 164.775 107.187 164.573 108 164.468C104.948 164.75 102.297 164.498 100.545 164.502L102.147 164.389C101.186 164.46 100.406 164.473 99.6054 164.485L100.515 164.662C99.5719 164.645 98.7794 164.657 98.792 164.578C97.8275 164.72 99.5425 164.884 97.6095 165.094C96.3557 165.023 93.7769 165.241 93.345 164.989C97.3076 165.039 92.8964 164.737 96.2551 164.662C95.6093 164.699 94.821 164.704 93.8818 164.678C93.7308 164.653 94.0034 164.624 94.2675 164.607C90.4727 164.414 92.5357 164.909 88.6025 164.909C89.1015 164.767 87.701 164.636 87.0511 164.662C88.6361 164.67 87.8058 164.905 86.3592 165.01C83.8265 164.888 83.6169 165.09 82.2918 165.073L83.8014 165.123C83.294 165.27 82.0318 165.249 80.2623 165.3C80.1239 165.186 81.8557 165.22 81.2225 165.17C79.2895 165.426 76.8239 164.922 74.1025 165.111C72.8404 165.023 73.9725 164.838 72.8697 164.783C69.8255 164.993 69.5571 164.611 66.3619 164.792C67.2844 164.976 67.4312 164.93 65.1962 165.136L70.4545 164.96L67.0706 165.27C68.6682 165.262 70.4377 165.123 71.3937 165.149C69.7794 165.321 69.9471 165.27 70.6977 165.426C68.534 165.149 66.3997 165.631 63.8754 165.451L63.9467 164.968C60.1644 164.779 57.2292 165.266 52.3148 165.136L53.9082 165.22C53.2457 165.413 50.8639 165.245 49.2831 165.312C49.4383 165.153 48.4361 165.094 47.7526 164.985C47.8365 165.102 44.1674 164.943 43.7188 165.249L41.5383 165.006C37.58 164.838 37.0139 165.367 33.2023 165.182C34.347 165.048 32.632 164.88 35.1815 164.838C33.9067 164.8 32.7746 164.72 32.7368 164.834C32.372 164.767 31.4915 164.788 30.5564 164.8C29.6297 164.796 28.6485 164.771 28.074 164.657C27.5499 164.678 27.3654 164.825 25.9523 164.662C25.8055 164.611 25.9607 164.582 25.9607 164.582C25.9481 164.687 23.7634 164.355 24.9543 164.729C23.0548 164.229 20.4089 163.662 17.9265 162.772C17.2934 162.575 16.7021 162.298 16.1193 162.046C15.8299 161.916 15.5364 161.803 15.2639 161.656C14.9955 161.505 14.7313 161.358 14.4713 161.215C14.2156 161.068 13.9682 160.925 13.725 160.787C13.4818 160.648 13.2763 160.472 13.0666 160.325C12.6515 160.014 12.2783 159.729 11.968 159.447C11.4397 159.028 10.861 158.608 10.3117 158.138C10.0475 157.886 9.78338 157.634 9.51921 157.382C9.25923 157.122 8.9699 156.891 8.74766 156.601C8.50865 156.324 8.27383 156.047 8.03901 155.774C7.8042 155.501 7.56519 155.241 7.37649 154.943C6.98653 154.367 6.58398 153.834 6.2653 153.301C6.3869 153.402 6.31562 153.272 6.56721 153.662C6.14789 152.923 5.90469 152.424 5.66148 152.079C5.43086 151.731 5.23797 151.517 5.07863 151.269C4.9109 151.026 4.73479 150.765 4.51674 150.337C4.40772 150.123 4.28193 149.867 4.14355 149.552C4.01356 149.233 3.90454 148.834 3.76197 148.368C3.36362 146.382 4.55868 150.278 4.24838 149.065C4.32805 148.889 4.27354 148.528 4.13097 148.045C3.99679 147.558 3.7452 146.962 3.55651 146.265C3.45168 145.921 3.34685 145.56 3.23363 145.194C3.12461 144.829 3.01559 144.455 2.94011 144.078C2.78077 143.326 2.63401 142.583 2.59208 141.924C2.62981 142.134 2.69271 142.335 2.74722 142.545C2.55434 140.543 1.74505 137.734 1.67796 134.43C1.67796 134.43 1.72409 134.581 1.75763 134.443C1.68216 133.88 1.61926 133.192 1.56055 132.428C1.50185 131.659 1.51862 130.811 1.51024 129.934C1.50185 129.056 1.58152 128.154 1.61926 127.268C1.67377 126.382 1.79118 125.521 1.86246 124.728C1.94213 125.752 1.78699 126.176 2.07212 125.614C2.1476 124.908 2.05116 125.001 1.97149 124.913C1.9002 124.829 1.81214 124.56 2.04277 123.149C2.18953 122.709 2.33629 121.974 2.56272 121.34C2.77658 120.706 2.98204 120.16 3.11622 120.064C2.93172 120.933 2.70948 121.793 2.5795 122.671C2.8227 122.02 3.01978 121.185 3.17912 120.328C3.32169 119.472 3.51038 118.615 3.72423 117.939L3.79552 118.149C3.92551 117.654 4.03872 117.221 4.13936 116.835C4.24838 116.449 4.34902 116.109 4.43707 115.798C4.61738 115.177 4.71382 114.648 4.88574 114.14C5.04508 113.624 5.20862 113.103 5.43505 112.448C5.66568 111.797 6.0221 111.046 6.47915 110.047L6.2066 110.412C6.37852 109.824 6.55882 109.438 6.71816 109.14C6.8775 108.838 7.01588 108.628 7.15845 108.418C7.30101 108.208 7.44358 108.002 7.61131 107.704C7.78742 107.414 8.00128 107.041 8.26125 106.491L8.9112 106.029C9.26342 105.315 9.99303 104.127 10.7855 102.788C11.2174 102.141 11.6745 101.461 12.1232 100.798C12.5676 100.126 13.075 99.5259 13.5111 98.9549C12.618 100.332 10.7478 103.103 9.76241 104.912C10.601 103.59 12.7773 100.508 13.2218 99.8072C13.0331 100.067 12.8234 100.357 12.6138 100.647C12.4167 100.945 12.2112 101.235 12.0058 101.47C12.945 99.761 14.4713 97.6997 16.6979 95.462C16.7105 95.6677 17.0879 95.42 17.6749 94.9078C17.9601 94.6475 18.3207 94.3411 18.7232 94.001C19.1174 93.6568 19.5535 93.2789 20.0063 92.8843C21.8555 91.3603 24.0737 89.7272 25.1723 89.3326C27.3905 87.6911 29.8226 86.3812 32.4223 85.2015C35.0221 84.0176 37.8106 82.9722 40.8716 81.9605C39.7143 82.0948 40.1588 81.9395 40.8339 81.7086C41.5048 81.4609 42.4063 81.2132 42.1421 81.0243C43.5804 80.5709 44.1423 80.4239 44.2723 80.4407C45.027 80.3232 45.7776 80.1888 46.5282 80.0881L48.7925 79.8613C49.3334 79.8865 48.9812 79.9243 48.52 80.0293C48.0587 80.13 47.4842 80.2476 47.5597 80.2896C49.1699 80.0167 49.5179 80.0922 49.7234 80.1216C49.9289 80.1636 50.0043 80.235 51.0652 80.1888C50.843 80.1216 51.1155 80.0209 51.6774 79.9747C51.9584 79.9453 52.3106 79.9243 52.7089 79.9075C52.9102 79.8991 53.1199 79.8949 53.3379 79.8865C53.556 79.8865 53.7824 79.9033 54.013 79.9159C53.7992 79.8907 53.5811 79.8655 53.3631 79.8446L52.7131 79.8152L51.4049 79.7522C53.6776 79.4877 54.6672 79.685 55.6442 79.8026C56.617 80.0083 57.5814 80.13 59.8331 80.4029L58.3865 80.3274C58.6758 80.3651 59.0239 80.4155 59.418 80.4659C59.6151 80.4953 59.8248 80.5247 60.0428 80.5583C60.2567 80.6044 60.4831 80.6548 60.7137 80.7052C61.175 80.8059 61.6698 80.9193 62.1771 81.0285C62.6761 81.1754 63.1919 81.3223 63.7034 81.4735C63.9592 81.5532 64.2192 81.612 64.4708 81.7002C64.7224 81.7883 64.9698 81.8765 65.213 81.9647C65.7036 82.141 66.1858 82.2879 66.6303 82.4559C67.5067 82.8169 68.2992 83.0814 68.8569 83.2661C69.1923 83.5138 69.6033 83.8959 68.6766 83.4298C69.3265 83.7867 69.9974 84.1561 70.6809 84.5298C71.0122 84.7313 71.3476 84.937 71.6873 85.1427L72.1988 85.4492L72.4546 85.6045C72.5427 85.6591 72.6056 85.6885 72.7775 85.8186C73.9096 86.6499 75.0502 87.4895 76.1823 88.3208C77.2642 89.1688 78.3418 90.0127 79.4027 90.8397C78.8953 89.7062 78.3963 88.5937 77.9099 87.5063C77.4319 86.4358 76.9832 85.4366 76.5597 84.4206C76.4507 84.1687 76.3752 83.9336 76.2872 83.6943C76.2117 83.4802 76.132 83.2703 76.0566 83.0646C75.9559 82.7791 75.8553 82.4978 75.7588 82.225C75.6666 81.9521 75.5701 81.6834 75.4905 81.4189C75.4234 81.1502 75.3563 80.8941 75.2934 80.6422L75.5324 81.0117C75.2053 80.0041 74.7609 79.3282 74.5386 78.0015C74.6057 78.0645 74.7567 78.3836 74.6518 77.9134C74.4925 77.3802 73.7461 75.2475 73.6161 73.8327L73.96 74.983C73.5197 72.2583 73.1633 70.176 72.9159 68.1776C72.811 67.1785 72.6391 66.2045 72.6014 65.1885C72.5511 64.1725 72.4546 63.1104 72.5217 61.9433C72.7104 61.9601 72.8488 60.8769 73.0459 59.5335C73.1591 58.8618 73.2681 58.1271 73.3687 57.4218C73.4568 56.7165 73.6203 56.0573 73.7084 55.5242L73.7461 55.6081C73.9767 54.0212 74.3206 52.5812 74.5889 51.1874C74.7567 50.4989 74.9202 49.8271 75.0795 49.1638C75.1592 48.8322 75.2389 48.5047 75.3144 48.1772C75.4066 47.854 75.4989 47.5307 75.5953 47.2116C75.7798 46.5693 75.9643 45.9312 76.1488 45.2888C76.3668 44.6549 76.5807 44.021 76.8029 43.3744C76.9162 43.0512 77.0252 42.7279 77.1384 42.4005C77.2684 42.0772 77.3984 41.7539 77.5325 41.4265C77.8009 40.7715 78.0693 40.0998 78.3712 39.4155C79.3859 37.8454 80.8074 35.0493 82.7405 32.2197C84.6274 29.3691 86.9337 26.4597 89.0009 24.3228C88.6696 24.6335 88.6445 24.5705 88.7787 24.3102C88.9212 24.0626 89.2399 23.6343 89.5963 23.2313C90.5733 22.2405 92.1584 20.3009 92.2171 20.6998L91.8523 21.044C92.3554 20.8005 93.0725 20.1288 93.9489 19.4151C94.8085 18.6846 95.7435 17.8156 96.6367 17.1439L96.6576 16.5771C97.8862 15.7584 99.3119 14.8348 100.759 13.8272C101.501 13.3486 102.251 12.8533 103.002 12.3495C103.761 11.8667 104.532 11.4091 105.279 10.9431C108.298 9.1504 111.17 7.7356 112.764 7.39974C113.397 7.08487 114.118 6.75321 114.843 6.43414C115.577 6.14027 116.311 5.84219 116.953 5.55671L116.957 5.80021C117.888 5.48954 118.714 5.25444 119.489 5.01094C120.265 4.78004 121.007 4.59112 121.771 4.37281C123.301 3.96138 124.949 3.55835 127.318 3.05036L126.383 3.445C129.05 2.92861 129.658 2.16034 132.178 1.80349C132.442 1.87906 132.711 1.97561 132.975 2.06378C135.344 1.7825 137.751 1.74471 140.141 1.72372C142.535 1.75311 144.913 1.81608 147.278 1.87906C147.206 1.92524 147.051 2.0134 146.28 1.96722C146.837 2.0176 147.659 2.07637 148.557 2.20652C149.454 2.31987 150.435 2.44162 151.316 2.58436C153.085 2.82366 154.465 3.06716 154.104 2.74389C154.104 2.90343 155.32 3.11754 156.834 3.42821C157.597 3.56255 158.432 3.74307 159.232 3.9152C159.635 3.99917 160.029 4.08313 160.398 4.1629C160.767 4.25526 161.115 4.33922 161.43 4.41479L160.985 4.51975C162.063 4.70027 162.637 4.75485 163.291 4.92278C163.618 5.00255 163.971 5.09491 164.424 5.22505C164.65 5.29222 164.902 5.36779 165.187 5.45176C165.468 5.54832 165.786 5.66167 166.147 5.78762C166.814 6.07729 166.68 6.18645 165.803 5.78762C168.009 6.76581 167.64 6.25782 170.269 7.53828C169.925 7.42073 169.569 7.33257 169.221 7.23181C169.787 7.47531 170.198 7.66423 170.516 7.81117C170.835 7.95391 171.07 8.05047 171.271 8.12604C171.678 8.28137 171.975 8.33595 172.617 8.57525C172.973 8.73478 173.414 8.95729 173.875 9.20078C174.336 9.44428 174.818 9.71717 175.25 10.0026C176.118 10.5652 176.848 11.0648 176.94 11.2579C177.112 11.2915 177.506 11.451 178.009 11.7029C178.513 11.959 179.133 12.2991 179.716 12.7483C179.838 12.9246 179.368 12.6643 179.142 12.5384C182.5 14.9608 184.32 15.9138 186.354 17.9415C186.354 18.0381 186.463 18.185 186.639 18.3697C184.178 16.1825 182.006 14.6375 182.215 14.7635C182.098 14.9314 184.19 16.5309 182.337 15.5149C182.794 15.792 183.31 16.1405 183.872 16.5225C184.429 16.9088 185.054 17.3076 185.641 17.7736C186.232 18.2312 186.849 18.6888 187.406 19.1758C187.96 19.667 188.484 20.1498 188.937 20.6116C189.004 20.704 189.092 20.8089 189.134 20.8971C189.067 20.8383 188.991 20.7837 188.92 20.725C189.339 21.1574 189.713 21.5226 190.103 21.8627C190.656 22.4714 191.004 22.8535 191.52 23.4454C191.558 23.6175 192.052 24.1885 192.635 24.8518C193.193 25.5361 193.855 26.296 194.262 26.8166C194.375 26.5899 195.386 28.0005 194.56 26.5815C194.677 26.7578 194.392 26.401 193.818 25.7334C193.688 25.5865 193.541 25.4102 193.449 25.322L193.516 25.3724C192.975 24.6923 192.199 23.8568 191.34 22.9164C192.111 23.6091 192.954 24.3354 193.767 25.5613C194.061 25.8006 194.359 26.0441 194.614 26.254C194.87 26.4681 195.076 26.6655 195.214 26.7872C196.111 28.4035 197.86 31.4221 197.923 31.9468C198.497 32.7781 199.034 33.7353 199.6 34.7009C199.889 35.1837 200.129 35.6917 200.397 36.1871C200.657 36.6867 200.934 37.1737 201.16 37.6732C201.638 38.6598 202.112 39.596 202.498 40.4525C202.699 40.8765 202.892 41.2711 203.081 41.6322C203.257 41.9974 203.42 42.3249 203.575 42.6104C204.007 43.6809 203.915 43.9034 203.965 44.3274C203.73 43.7145 203.454 42.9714 203.278 42.644C203.73 43.7019 204.255 45.3224 204.699 46.7456C204.909 47.4593 205.11 48.1185 205.286 48.6306C205.454 49.147 205.584 49.5165 205.689 49.634C205.944 51.0656 205.785 50.6794 205.68 50.4233C205.626 50.2931 205.588 50.2008 205.622 50.3771C205.647 50.5576 205.777 51.0026 205.961 51.9808L205.773 51.4813C206.301 55.3646 206.838 58.4881 207.202 61.7837C207.546 65.0668 207.706 68.5303 207.026 72.8671C207.114 72.2541 207.156 71.9477 207.219 71.8301C206.712 76.7882 205.928 81.8681 204.657 86.8262C204.041 89.3074 203.278 91.7508 202.401 94.1228C201.974 95.3151 201.483 96.4738 200.992 97.6199C200.481 98.7492 199.931 99.8492 199.298 100.899C198.611 102.099 198.233 102.767 197.952 103.342C197.675 103.917 197.478 104.383 197.084 105.143L196.543 105.525C196.095 106.39 195.633 107.251 195.168 108.111C194.17 109.765 193.118 111.096 192.048 112.545C191.784 112.91 191.516 113.275 191.247 113.661C191.117 113.854 190.983 114.052 190.849 114.253C190.782 114.358 190.715 114.459 190.644 114.564C190.551 114.707 190.459 114.862 190.371 115.017C190.019 115.635 189.637 116.285 189.281 116.97C189.109 117.305 188.933 117.654 188.752 118.002L188.622 118.263L188.56 118.393C188.56 118.414 188.572 118.422 188.58 118.435C188.614 118.485 188.652 118.536 188.694 118.582C189.226 118.33 189.96 118.032 190.618 117.75C190.296 117.813 190.027 117.851 189.813 117.864C190.488 117.633 191.419 117.242 192.233 117.196L192.484 117.188C192.56 117.18 192.635 117.192 192.707 117.2C192.853 117.217 193.004 117.23 193.151 117.251C193.294 117.289 193.436 117.326 193.579 117.364C193.721 117.398 193.843 117.478 193.973 117.528C194.103 117.578 194.22 117.646 194.329 117.721C194.438 117.792 194.547 117.851 194.64 117.927C194.816 118.086 194.988 118.212 195.092 118.347C195.315 118.611 195.42 118.758 195.331 118.733C195.461 118.859 195.847 119.09 196.124 119.753L196.032 119.854C196.782 121.113 197.248 122.587 197.512 124.086C197.6 124.963 197.566 125.374 197.52 125.568C197.474 125.761 197.411 125.744 197.353 125.782C197.29 125.815 197.248 125.899 197.206 126.29C197.156 126.68 197.147 127.377 196.992 128.62C196.904 129.543 196.728 130.866 196.418 131.798C196.128 132.738 195.772 133.305 196.015 133.053C196.464 132.474 196.933 131.382 197.067 131.361C196.908 131.928 196.678 132.469 196.392 132.986C196.468 133.213 196.367 133.704 196.606 133.666C196.665 133.658 196.749 133.611 196.866 133.515C196.984 133.422 197.13 133.276 197.286 133.057C197.617 132.629 198.028 131.911 198.384 130.786C198.577 129.703 198.648 128.628 198.632 127.562C198.707 127.226 198.791 126.882 198.845 126.537C198.841 127.436 198.791 128.334 198.657 129.233C199.038 127.734 198.896 126.735 198.757 125.652C198.85 125.391 198.892 124.946 198.862 124.296C198.627 123.254 198.313 122.238 197.885 121.264C197.898 121.063 198.078 121.382 198.174 121.499C198.263 121.617 198.338 121.52 198.011 120.467C197.642 119.782 197.705 120.164 197.73 120.412C197.738 120.668 197.747 120.782 197.189 119.677C197.122 119.493 197.067 119.333 197.017 119.199C196.963 119.065 196.917 118.951 196.875 118.855C196.791 118.657 196.745 118.506 196.657 118.363C196.485 118.086 196.304 117.746 195.495 117.154C195.424 117.033 195.474 117.02 195.629 117.108C195.705 117.15 195.805 117.217 195.927 117.305C196.036 117.402 196.166 117.52 196.309 117.662C195.99 117.347 195.6 116.991 195.118 116.701C194.996 116.63 194.874 116.554 194.753 116.483L194.354 116.31C194.095 116.185 193.809 116.126 193.537 116.054C193.264 115.979 192.992 115.983 192.736 115.954C192.606 115.937 192.484 115.954 192.367 115.958C192.279 115.966 192.258 115.975 192.22 115.979C192.082 116.008 191.948 116.075 191.818 116.143C191.725 116.138 191.608 116.138 191.482 116.189L191.382 116.226L191.327 116.247C191.302 116.26 191.34 116.218 191.344 116.206L191.47 115.97C191.549 115.819 191.629 115.668 191.713 115.542C191.797 115.408 191.851 115.332 191.943 115.244C192.086 115.068 192.187 114.988 192.233 115.051C192.384 114.602 193.386 112.637 194.149 111.466C193.625 112.65 194.342 111.566 195.214 110.29C196.086 109.018 197.097 107.532 197.097 107.943C197.466 107.045 198.384 105.588 199.353 103.926C200.326 102.272 201.319 100.387 201.902 98.766C201.856 98.9507 201.755 99.3244 201.617 99.5889C202.447 97.8256 202.711 97.3638 203.248 96.2513C203.055 95.8986 204.011 93.0858 204.305 91.5031C204.808 90.4451 204.787 90.8062 204.707 91.3645C204.619 91.9187 204.468 92.666 204.724 92.3637C204.573 92.3805 204.858 91.4023 205.06 90.4871C205.274 89.5761 205.462 88.749 205.244 89.1017C205.915 87.435 205.739 87.6407 206.238 86.822C205.949 86.4106 206.573 85.1721 206.674 83.6733C207.03 82.4307 207.156 82.2837 207.249 82.099C207.337 81.9143 207.42 81.6876 207.597 80.2728C207.773 79.6178 207.785 79.9201 207.756 80.3861C207.739 80.6212 207.714 80.8941 207.693 81.1124C207.71 81.3391 207.689 81.4945 207.689 81.4945ZM189.415 19.1044C189.843 19.4907 190.212 19.8223 190.43 20.0532C190.228 19.8475 189.939 19.5788 189.415 19.1044ZM185.125 15.3764C185.389 15.5905 185.691 15.834 186.018 16.0985C186.333 16.3714 186.673 16.6611 187.021 16.9591C187.109 17.1397 186.912 17.0767 186.476 16.6946C186.61 16.7744 186.429 16.5855 186.14 16.3042C185.838 16.0271 185.436 15.6577 185.125 15.3764ZM192.606 24.6965C191.994 24.0709 191.834 23.8274 191.788 23.7057C192.061 24.008 192.405 24.3522 192.828 24.8266L192.925 24.898C192.824 24.8476 192.736 24.8014 192.606 24.6965Z" fill="white"/>
<path d="M193.839 25.7176C193.931 25.8183 193.977 25.8603 194.082 25.9905C193.973 25.8267 193.868 25.6756 193.784 25.5454L193.537 25.3565L193.839 25.7176Z" fill="white"/>
<path d="M191.86 164.041L191.734 164.037C191.843 164.045 191.935 164.054 191.998 164.071C191.935 164.054 191.906 164.05 191.86 164.041Z" fill="white"/>
<path d="M110.969 5.93969L110.99 5.99427L111.43 5.75916L110.969 5.93969Z" fill="white"/>
<path d="M222.839 164.167C222.902 164.184 223.028 164.201 223.258 164.209C223.242 164.197 223.057 164.18 222.839 164.167Z" fill="white"/>
<path d="M236.266 163.579L237.603 163.55L237.947 163.542C238.031 163.563 237.989 163.474 237.993 163.428L237.951 162.601C237.964 162.882 237.976 163.147 237.989 163.395L237.993 163.487V163.533C237.981 163.537 237.964 163.533 237.947 163.537C237.884 163.537 237.821 163.542 237.763 163.542C237.641 163.546 237.528 163.546 237.415 163.55C236.97 163.558 236.593 163.571 236.266 163.579Z" fill="white"/>
<path d="M237.674 153.898C237.628 153.823 237.595 153.756 237.561 153.701V153.73L237.674 153.898Z" fill="white"/>
<path d="M82.9883 166.627C82.8541 166.632 82.7157 166.636 82.59 166.64C81.6675 166.686 82.3006 166.665 82.9883 166.627Z" fill="white"/>
<path d="M131.663 165.112C131.138 165.162 130.631 165.217 130.094 165.254C130.954 165.25 131.633 165.242 131.663 165.112Z" fill="white"/>
<path d="M28.5606 166.51L28.5774 166.506L28.2337 166.48L28.5606 166.51Z" fill="white"/>
<path d="M127.834 165.305C128.698 165.33 129.419 165.301 130.09 165.254C129.386 165.259 128.543 165.254 127.834 165.305Z" fill="white"/>
<path d="M206.721 126.484L206.196 126.522C206.213 126.534 206.18 126.551 206.15 126.563L206.721 126.484Z" fill="white"/>
<path d="M206.154 126.564L205.592 126.673C205.84 126.635 206.079 126.597 206.154 126.564Z" fill="white"/>
<path d="M204.427 126.941C204.812 126.836 205.198 126.74 205.592 126.673C205.177 126.723 204.674 126.82 204.427 126.941Z" fill="white"/>
<path d="M220.302 128.973L220.482 128.956C220.394 128.94 220.34 128.948 220.302 128.973Z" fill="white"/>
<path d="M224.059 130.934C223.229 130.359 221.95 129.477 220.621 128.948L220.482 128.956C220.805 129.04 221.506 129.401 222.206 129.826C222.562 130.027 222.906 130.271 223.233 130.455C223.552 130.661 223.837 130.837 224.059 130.934Z" fill="white"/>
<path d="M233.951 145.04C233.464 144.003 232.949 142.979 232.399 141.971C232.613 142.538 232.898 143.281 232.123 141.946C232.601 142.916 232.806 143.352 232.898 143.516C232.991 143.68 232.97 143.571 232.953 143.461C232.94 143.352 232.936 143.243 233.062 143.415C233.196 143.579 233.46 144.024 233.951 145.04Z" fill="white"/>
<path d="M236.622 155.17C236.484 153.336 236.496 155.212 236.437 155.099C236.563 156.266 236.593 156.56 236.622 155.17Z" fill="white"/>
<path d="M167.602 164.642L167.791 164.427C166.357 164.486 167.778 164.511 167.602 164.642Z" fill="white"/>
<path d="M152.754 165.385C153.22 165.439 153.681 165.506 154.146 165.565L154.813 165.401C154.125 165.397 153.442 165.376 152.754 165.385Z" fill="white"/>
<path d="M144.011 163.731L144.628 163.705L142.229 163.777L144.011 163.731Z" fill="white"/>
<path d="M14.5596 160.804L14.807 161.228C15.6582 161.644 15.9475 161.472 14.5596 160.804Z" fill="white"/>
<path d="M6.39562 110.589C6.73527 110.073 7.57391 108.759 7.90098 107.852C7.31393 108.943 6.60948 109.98 6.39562 110.589Z" fill="white"/>
<path d="M99.0691 15.1758L98.2137 15.9021L99.8742 14.6091L99.0691 15.1758Z" fill="white"/>
</svg>
